<svg width="40" height="40" viewBox="0 0 40 40" fill="none" xmlns="http://www.w3.org/2000/svg">
<g clip-path="url(#clip0_1_693)">
<rect width="40" height="40" rx="12" fill="white" fill-opacity="0.12"/>
<rect width="40" height="40" rx="12" fill="#424141"/>
<path fill-rule="evenodd" clip-rule="evenodd" d="M20 30C25.5228 30 30 25.5228 30 20C30 14.4772 25.5228 10 20 10C14.4772 10 10 14.4772 10 20C10 25.5228 14.4772 30 20 30ZM20.75 17C20.75 16.5858 20.4142 16.25 20 16.25C19.5858 16.25 19.25 16.5858 19.25 17L19.25 19.25H17C16.5858 19.25 16.25 19.5858 16.25 20C16.25 20.4142 16.5858 20.75 17 20.75H19.25V23C19.25 23.4142 19.5858 23.75 20 23.75C20.4142 23.75 20.75 23.4142 20.75 23L20.75 20.75H23C23.4142 20.75 23.75 20.4142 23.75 20C23.75 19.5858 23.4142 19.25 23 19.25H20.75V17Z" fill="white"/>
</g>
<defs>
<clipPath id="clip0_1_693">
<rect width="40" height="40" rx="12" fill="white"/>
</clipPath>
</defs>
</svg>
