<svg width="48" height="48" viewBox="0 0 48 48" fill="none" xmlns="http://www.w3.org/2000/svg">
<rect width="48" height="48" rx="12" fill="white" fill-opacity="0.12"/>
<path d="M24 19.5532C15.2933 19.5532 8.21333 25.3532 8 32.5732H40C39.7867 25.3532 32.7067 19.5532 24 19.5532ZM17.1133 27.9599C16.8778 27.9599 16.6446 27.9135 16.4271 27.8234C16.2095 27.7333 16.0118 27.6012 15.8453 27.4346C15.6787 27.2681 15.5466 27.0704 15.4565 26.8528C15.3664 26.6353 15.32 26.4021 15.32 26.1666C15.3322 25.6903 15.5328 25.2383 15.8777 24.9097C16.2226 24.581 16.6837 24.4025 17.16 24.4132C18.12 24.4332 18.8867 25.2066 18.9133 26.1666C18.9133 26.4021 18.8669 26.6353 18.7768 26.8528C18.6867 27.0704 18.5546 27.2681 18.3881 27.4346C18.2216 27.6012 18.0239 27.7333 17.8063 27.8234C17.5887 27.9135 17.3555 27.9599 17.12 27.9599H17.1133ZM30.8933 27.9599C30.4177 27.9599 29.9616 27.7709 29.6253 27.4346C29.2889 27.0983 29.1 26.6422 29.1 26.1666C29.1 25.6909 29.2889 25.2348 29.6253 24.8985C29.9616 24.5622 30.4177 24.3732 30.8933 24.3732C31.88 24.3732 32.6867 25.1799 32.6867 26.1666C32.6867 26.6422 32.4977 27.0983 32.1614 27.4346C31.8251 27.7709 31.369 27.9599 30.8933 27.9599Z" fill="#FFE665"/>
<path d="M18.0333 21.9534C18.1733 22.18 18.1 22.48 17.8733 22.6134C17.66 22.74 17.38 22.6867 17.2333 22.4867L13.4333 16.7467C13.3629 16.6405 13.3374 16.5108 13.3624 16.3859C13.3874 16.2609 13.4608 16.151 13.5666 16.08C13.7866 15.9334 14.0866 15.9934 14.2333 16.2134L18.0333 21.9534ZM29.96 21.9534C29.8133 22.1734 29.8733 22.4734 30.0933 22.62C30.3133 22.7667 30.6133 22.7067 30.76 22.4867L34.56 16.7467C34.7066 16.5267 34.6466 16.2267 34.4266 16.08C34.3204 16.0097 34.1907 15.9842 34.0658 16.0091C33.9408 16.0341 33.8309 16.1076 33.76 16.2134L29.96 21.9534Z" fill="#FFE665"/>
</svg>
