<svg width="48" height="48" viewBox="0 0 48 48" fill="none" xmlns="http://www.w3.org/2000/svg">
<rect width="48" height="48" rx="12" fill="white" fill-opacity="0.12"/>
<path d="M34.7333 19.1733C34.5667 19.2999 31.6133 20.9666 31.6133 24.6733C31.6133 28.9599 35.3733 30.4733 35.4867 30.5066C35.4667 30.5999 34.8867 32.5799 33.5067 34.5999C32.2733 36.3799 30.98 38.1533 29.02 38.1533C27.06 38.1533 26.5533 37.0133 24.2867 37.0133C22.02 37.0133 21.2933 38.1933 19.5 38.1933C17.7067 38.1933 16.4533 36.5466 15.0133 34.5266C13.3467 32.1533 12 28.4666 12 24.9666C12 19.3533 15.6467 16.3799 19.24 16.3799C21.1467 16.3799 22.74 17.6333 23.9333 17.6333C25.1267 17.6333 26.8533 16.3066 29.02 16.3066C29.84 16.3066 32.8 16.3799 34.7467 19.1733H34.7333ZM27.98 13.9333C28.88 12.8666 29.5133 11.3933 29.5133 9.91325C29.5133 9.70659 29.4933 9.49992 29.46 9.33325C28 9.38659 26.26 10.3066 25.2133 11.5199C24.3933 12.4533 23.62 13.9333 23.62 15.4333C23.62 15.6599 23.66 15.8866 23.6733 15.9533C23.7667 15.9733 23.9133 15.9933 24.0667 15.9933C25.38 15.9933 27.0267 15.1133 27.98 13.9333Z" fill="#FFE665"/>
</svg>
