<svg viewBox="0 0 20 20" xmlns="http://www.w3.org/2000/svg" xmlns:xlink="http://www.w3.org/1999/xlink" width="20.000000" height="20.000000" fill="none">
	<rect id="Outline / Arrows / Arrow Right" width="20.000000" height="20.000000" x="0.000000" y="0.000000" />
	<path id="Vector (Stroke)" d="M11.2248 4.55806C11.4688 4.31398 11.8646 4.31398 12.1086 4.55806L17.1087 9.55806C17.3527 9.80214 17.3527 10.1979 17.1087 10.4419L12.1086 15.4419C11.8646 15.686 11.4688 15.686 11.2248 15.4419C10.9807 15.1979 10.9807 14.8021 11.2248 14.5581L15.1578 10.625L3.33337 10.625C2.9882 10.625 2.70837 10.3452 2.70837 10C2.70837 9.65482 2.9882 9.375 3.33337 9.375L15.1578 9.375L11.2248 5.44194C10.9807 5.19786 10.9807 4.80214 11.2248 4.55806Z" fill="rgb(255,255,255)" fill-rule="evenodd" />
</svg>
