<svg width="40" height="40" viewBox="0 0 40 40" fill="none" xmlns="http://www.w3.org/2000/svg">
<g clip-path="url(#clip0_105_2618)">
<rect width="40" height="40" rx="12" fill="white" fill-opacity="0.12"/>
<rect width="40" height="40" rx="12" fill="#424141"/>
<path d="M11 14.5238C11 14.1293 11.3267 13.8095 11.7297 13.8095H16.5179C16.5244 12.9683 16.6155 11.815 17.4504 11.0167C18.1074 10.3884 19.0081 10 20 10C20.9919 10 21.8926 10.3884 22.5496 11.0167C23.3844 11.815 23.4756 12.9683 23.4821 13.8095H28.2703C28.6733 13.8095 29 14.1293 29 14.5238C29 14.9183 28.6733 15.2381 28.2703 15.2381H11.7297C11.3267 15.2381 11 14.9183 11 14.5238Z" fill="white"/>
<path fill-rule="evenodd" clip-rule="evenodd" d="M19.5956 30H20.4044C23.1871 30 24.5785 30 25.4831 29.1141C26.3878 28.2281 26.4803 26.7749 26.6654 23.8685L26.9321 19.6806C27.0326 18.1036 27.0828 17.3151 26.6289 16.8155C26.1751 16.3158 25.4087 16.3158 23.876 16.3158H16.124C14.5913 16.3158 13.8249 16.3158 13.3711 16.8155C12.9172 17.3151 12.9674 18.1036 13.0679 19.6806L13.3346 23.8685C13.5197 26.7749 13.6122 28.2281 14.5169 29.1141C15.4215 30 16.8129 30 19.5956 30ZM18.2463 20.1885C18.2051 19.7546 17.8375 19.4381 17.4254 19.4815C17.0132 19.5249 16.7125 19.9117 16.7537 20.3456L17.2537 25.6087C17.2949 26.0426 17.6625 26.3591 18.0746 26.3157C18.4868 26.2724 18.7875 25.8855 18.7463 25.4516L18.2463 20.1885ZM22.5746 19.4815C22.9868 19.5249 23.2875 19.9117 23.2463 20.3456L22.7463 25.6087C22.7051 26.0426 22.3375 26.3591 21.9254 26.3157C21.5132 26.2724 21.2125 25.8855 21.2537 25.4516L21.7537 20.1885C21.7949 19.7546 22.1625 19.4381 22.5746 19.4815Z" fill="white"/>
</g>
<defs>
<clipPath id="clip0_105_2618">
<rect width="40" height="40" rx="12" fill="white"/>
</clipPath>
</defs>
</svg>
