<svg viewBox="0 0 40 40" xmlns="http://www.w3.org/2000/svg" xmlns:xlink="http://www.w3.org/1999/xlink" width="40.000000" height="40.000000" fill="none" clip-path="url(#clipPath_7)">
	<defs>
		<clipPath id="clipPath_7">
			<rect width="40.000000" height="40.000000" x="0.000000" y="0.000000" rx="12.000000" fill="rgb(255,255,255)" />
		</clipPath>
		<clipPath id="clipPath_8">
			<rect width="24.000000" height="24.000000" x="8.000000" y="8.000000" fill="rgb(255,255,255)" />
		</clipPath>
	</defs>
	<rect id="icons" width="40.000000" height="40.000000" x="0.000000" y="0.000000" rx="12.000000" fill="rgb(255,255,255)" fill-opacity="0.119999997" />
	<g id="Bold / School / Notebook" clip-path="url(#clipPath_8)">
		<rect id="Bold / School / Notebook" width="24.000000" height="24.000000" x="8.000000" y="8.000000" />
		<path id="Vector" d="M21.6276 28.0692C21.3485 28.218 21.0531 28.3257 20.7502 28.3925L20.7502 13.1739C21.0709 13.0953 21.3824 12.9714 21.6738 12.8028C22.5353 12.3042 23.5924 11.7592 24.5 11.4874C25.5469 11.174 26.9534 11.0571 28.082 11.0177C29.1538 10.9804 30 11.8607 30 12.9332L30 24.1436C30 25.2546 29.094 26.1535 27.9851 26.2228C27.0157 26.2835 25.8767 26.402 25 26.6334C23.9185 26.9187 22.6271 27.5365 21.6276 28.0692ZM10 24.1436L10 12.9978C10 11.8996 10.8863 11.0075 11.9824 11.0749C12.9588 11.1349 14.1135 11.2535 15 11.4874C16.0492 11.7643 17.2961 12.354 18.2823 12.8755C18.5894 13.0378 18.9159 13.1505 19.2502 13.214L19.2502 28.3926C18.9472 28.3258 18.6516 28.218 18.3724 28.0692C17.3729 27.5365 16.0815 26.9187 15 26.6334C14.1233 26.402 12.9843 26.2835 12.0149 26.2228C10.906 26.1535 10 25.2546 10 24.1436ZM13.1821 16.2724C12.7802 16.1719 12.373 16.4163 12.2726 16.8181C12.1721 17.2199 12.4164 17.6271 12.8183 17.7276L16.8183 18.7276C17.2201 18.8281 17.6273 18.5837 17.7278 18.1819C17.8282 17.7801 17.5839 17.3729 17.1821 17.2724L13.1821 16.2724ZM27.7278 16.8181C27.8282 17.2199 27.5839 17.6271 27.1821 17.7276L23.1821 18.7276C22.7802 18.8281 22.373 18.5837 22.2726 18.1819C22.1721 17.7801 22.4164 17.3729 22.8183 17.2724L26.8183 16.2724C27.2201 16.1719 27.6273 16.4163 27.7278 16.8181ZM13.1821 20.2724C12.7802 20.1719 12.373 20.4163 12.2726 20.8181C12.1721 21.2199 12.4164 21.6271 12.8183 21.7276L16.8183 22.7276C17.2201 22.8281 17.6273 22.5837 17.7278 22.1819C17.8282 21.7801 17.5839 21.3729 17.1821 21.2724L13.1821 20.2724ZM27.7278 20.8181C27.8282 21.2199 27.5839 21.6271 27.1821 21.7276L23.1821 22.7276C22.7802 22.8281 22.373 22.5837 22.2726 22.1819C22.1721 21.7801 22.4164 21.3729 22.8183 21.2724L26.8183 20.2724C27.2201 20.1719 27.6273 20.4163 27.7278 20.8181Z" fill="rgb(204.896,204.896,204.896)" fill-rule="evenodd" />
	</g>
</svg>
