<svg width="40" height="40" viewBox="0 0 40 40" fill="none" xmlns="http://www.w3.org/2000/svg">
<g clip-path="url(#clip0_105_824)">
<rect width="40" height="40" rx="12" fill="white" fill-opacity="0.12"/>
<rect width="40" height="40" rx="12" fill="#424141"/>
<path d="M15.75 10.5C15.75 10.0858 15.4142 9.75 15 9.75C14.5858 9.75 14.25 10.0858 14.25 10.5V12.0793C12.8107 12.1945 11.8658 12.4774 11.1716 13.1716C10.4774 13.8658 10.1945 14.8107 10.0793 16.25H29.9207C29.8055 14.8107 29.5226 13.8658 28.8284 13.1716C28.1342 12.4774 27.1893 12.1945 25.75 12.0793V10.5C25.75 10.0858 25.4142 9.75 25 9.75C24.5858 9.75 24.25 10.0858 24.25 10.5V12.0129C23.5847 12 22.839 12 22 12H18C17.161 12 16.4153 12 15.75 12.0129V10.5Z" fill="white"/>
<path fill-rule="evenodd" clip-rule="evenodd" d="M10 20C10 19.161 10 18.4153 10.0129 17.75H29.9871C30 18.4153 30 19.161 30 20V22C30 25.7712 30 27.6569 28.8284 28.8284C27.6569 30 25.7712 30 22 30H18C14.2288 30 12.3431 30 11.1716 28.8284C10 27.6569 10 25.7712 10 22V20ZM25 22C25.5523 22 26 21.5523 26 21C26 20.4477 25.5523 20 25 20C24.4477 20 24 20.4477 24 21C24 21.5523 24.4477 22 25 22ZM25 26C25.5523 26 26 25.5523 26 25C26 24.4477 25.5523 24 25 24C24.4477 24 24 24.4477 24 25C24 25.5523 24.4477 26 25 26ZM21 21C21 21.5523 20.5523 22 20 22C19.4477 22 19 21.5523 19 21C19 20.4477 19.4477 20 20 20C20.5523 20 21 20.4477 21 21ZM21 25C21 25.5523 20.5523 26 20 26C19.4477 26 19 25.5523 19 25C19 24.4477 19.4477 24 20 24C20.5523 24 21 24.4477 21 25ZM15 22C15.5523 22 16 21.5523 16 21C16 20.4477 15.5523 20 15 20C14.4477 20 14 20.4477 14 21C14 21.5523 14.4477 22 15 22ZM15 26C15.5523 26 16 25.5523 16 25C16 24.4477 15.5523 24 15 24C14.4477 24 14 24.4477 14 25C14 25.5523 14.4477 26 15 26Z" fill="white"/>
</g>
<defs>
<clipPath id="clip0_105_824">
<rect width="40" height="40" rx="12" fill="white"/>
</clipPath>
</defs>
</svg>
