<svg width="105" height="104" viewBox="0 0 105 104" fill="none" xmlns="http://www.w3.org/2000/svg">
<g clip-path="url(#clip0_1_631)">
<path d="M23.3741 102.502V90.3535" stroke="#E9EFF8" stroke-width="2.5" stroke-miterlimit="10" stroke-linecap="round" stroke-linejoin="round"/>
<path d="M43.4691 90.3535V102.502" stroke="#E9EFF8" stroke-width="2.5" stroke-miterlimit="10" stroke-linecap="round" stroke-linejoin="round"/>
<path d="M15.6247 102.502H51.2185" stroke="#E9EFF8" stroke-width="2.5" stroke-miterlimit="10" stroke-linecap="round" stroke-linejoin="round"/>
<path d="M54.5735 90.3536H12.2697C6.31802 90.3536 1.49321 85.5131 1.49321 79.542V52.6312C1.49321 46.6601 6.31802 41.8196 12.2697 41.8196H54.5735C60.5252 41.8196 65.35 46.6601 65.35 52.6312V79.542C65.35 85.5131 60.5252 90.3536 54.5735 90.3536Z" fill="#141414" stroke="#E9EFF8" stroke-width="2.5" stroke-miterlimit="10" stroke-linecap="round" stroke-linejoin="round"/>
<path d="M97.165 102.04H80.7511C77.2486 102.04 74.4093 99.1911 74.4093 95.6773V48.182C74.4093 44.6682 77.2486 41.8196 80.7511 41.8196H97.165C100.667 41.8196 103.507 44.6682 103.507 48.182V95.6773C103.507 99.1911 100.667 102.04 97.165 102.04Z" fill="#141414" stroke="#E9EFF8" stroke-width="2.5" stroke-miterlimit="10" stroke-linecap="round" stroke-linejoin="round"/>
<path d="M17.2905 54.8545H32.561" stroke="#FFE665" stroke-width="2.5" stroke-miterlimit="10" stroke-linecap="round" stroke-linejoin="round"/>
<path d="M17.2905 66.0867H45.0437" stroke="#FFE665" stroke-width="2.5" stroke-miterlimit="10" stroke-linecap="round" stroke-linejoin="round"/>
<path d="M17.2905 77.3188H45.0437" stroke="#FFE665" stroke-width="2.5" stroke-miterlimit="10" stroke-linecap="round" stroke-linejoin="round"/>
<path d="M38.6138 67.3555H37.59C37.1742 67.3555 36.8372 67.0173 36.8372 66.6002V65.5731C36.8372 65.156 37.1742 64.8179 37.59 64.8179H38.6138C39.0295 64.8179 39.3665 65.156 39.3665 65.5731V66.6002C39.3665 67.0173 39.0295 67.3555 38.6138 67.3555Z" stroke="#FFE665" stroke-width="2.5" stroke-miterlimit="10" stroke-linecap="round" stroke-linejoin="round"/>
<path d="M26.0624 78.5876H25.0386C24.6229 78.5876 24.2859 78.2495 24.2859 77.8324V76.8053C24.2859 76.3882 24.6229 76.05 25.0386 76.05H26.0624C26.4781 76.05 26.8152 76.3882 26.8152 76.8053V77.8324C26.8152 78.2495 26.4781 78.5876 26.0624 78.5876Z" stroke="#FFE665" stroke-width="2.5" stroke-miterlimit="10" stroke-linecap="round" stroke-linejoin="round"/>
<path d="M26.7023 56.1232H25.6785C25.2628 56.1232 24.9257 55.7851 24.9257 55.368V54.3409C24.9257 53.9238 25.2628 53.5857 25.6785 53.5857H26.7023C27.118 53.5857 27.455 53.9238 27.455 54.3409V55.368C27.455 55.7851 27.118 56.1232 26.7023 56.1232Z" stroke="#FFE665" stroke-width="2.5" stroke-miterlimit="10" stroke-linecap="round" stroke-linejoin="round"/>
<path d="M88.958 77.8453C92.6073 77.8453 95.5656 74.8774 95.5656 71.2163C95.5656 67.5551 92.6073 64.5872 88.958 64.5872C85.3088 64.5872 82.3505 67.5551 82.3505 71.2163C82.3505 74.8774 85.3088 77.8453 88.958 77.8453Z" stroke="#FFE665" stroke-width="2.5" stroke-miterlimit="10" stroke-linecap="round" stroke-linejoin="round"/>
<path d="M89.0466 87.3994V91.984" stroke="#FFE665" stroke-width="2.5" stroke-miterlimit="10" stroke-linecap="round" stroke-linejoin="round"/>
<path d="M92.0677 37.6064L89.9895 36.4027C90.1123 35.4471 90.1973 34.4797 90.1973 33.4907C90.1973 32.4389 90.1007 31.4121 89.9621 30.3986L92.0677 29.179C96.1627 26.8071 97.5656 21.5538 95.2014 17.4453C92.8372 13.3371 87.601 11.9294 83.5059 14.3014L81.34 15.556C79.7813 14.3583 78.0731 13.3499 76.2313 12.5897V10.0876C76.2313 5.34377 72.3981 1.49805 67.6697 1.49805C62.9413 1.49805 59.1081 5.3438 59.1081 10.0876V12.5897C57.2663 13.3499 55.558 14.3583 53.9994 15.5559L51.8335 14.3013C47.7384 11.9294 42.5021 13.3371 40.1379 17.4453C37.7737 21.5538 39.1767 26.8071 43.2718 29.179L45.3773 30.3985C45.2387 31.412 45.1421 32.4389 45.1421 33.4906C45.1421 34.4797 45.2272 35.4471 45.3499 36.4027L43.2718 37.6064C39.1767 39.9783 37.7737 45.2316 40.1379 49.34C42.5021 53.4482 47.7383 54.8558 51.8334 52.4839L53.852 51.3147C55.4489 52.5626 57.2088 53.6076 59.108 54.3915V56.6977C59.108 61.4416 62.9413 65.2872 67.6697 65.2872C72.3981 65.2872 76.2313 61.4416 76.2313 56.6977V54.3915C78.1305 53.6075 79.8904 52.5626 81.4874 51.3147L83.5059 52.4839C87.601 54.8558 92.8372 53.4483 95.2014 49.34C97.5657 45.2317 96.1627 39.9783 92.0677 37.6064Z" fill="#141414" stroke="#FFE665" stroke-width="2.5" stroke-miterlimit="10" stroke-linecap="round" stroke-linejoin="round"/>
<path d="M67.6697 42.1119C72.4696 42.1119 76.3607 38.2082 76.3607 33.3926C76.3607 28.5771 72.4696 24.6733 67.6697 24.6733C62.8698 24.6733 58.9787 28.5771 58.9787 33.3926C58.9787 38.2082 62.8698 42.1119 67.6697 42.1119Z" stroke="#FFE665" stroke-width="2.5" stroke-miterlimit="10" stroke-linecap="round" stroke-linejoin="round"/>
</g>
<defs>
<clipPath id="clip0_1_631">
<rect width="105" height="104" fill="white"/>
</clipPath>
</defs>
</svg>
