<svg width="20" height="20" viewBox="0 0 20 20" fill="none" xmlns="http://www.w3.org/2000/svg">
<path d="M6.66668 10.7498V14.2498C6.66668 17.1665 7.83334 18.3332 10.75 18.3332H14.25C17.1667 18.3332 18.3333 17.1665 18.3333 14.2498V10.7498C18.3333 7.83317 17.1667 6.6665 14.25 6.6665H10.75C7.83334 6.6665 6.66668 7.83317 6.66668 10.7498Z" stroke="var(--copy-color)" stroke-width="1.5" stroke-linecap="round" stroke-linejoin="round"/>
<path d="M1.66668 5.74984V9.24984C1.66668 12.1665 2.83334 13.3332 5.75001 13.3332H6.66668V10.7498C6.66668 7.83317 7.83334 6.6665 10.75 6.6665H13.3333V5.74984C13.3333 2.83317 12.1667 1.6665 9.25001 1.6665H5.75001C2.83334 1.6665 1.66668 2.83317 1.66668 5.74984Z" stroke="var(--copy-color)" stroke-width="1.5" stroke-linecap="round" stroke-linejoin="round"/>
</svg>
