<svg width="40" height="40" viewBox="0 0 40 40" fill="none" xmlns="http://www.w3.org/2000/svg">
<g clip-path="url(#clip0_105_1351)">
<rect width="40" height="40" rx="12" fill="white" fill-opacity="0.12"/>
<rect width="40" height="40" rx="12" fill="#424141"/>
<path d="M22 10H18C14.2288 10 12.3431 10 11.1716 11.1716C10 12.3431 10 14.2288 10 18V19C10 19.5516 10 20.0494 10.0065 20.5H20.6017C20.7054 19.8207 20.9376 19.1127 21.5251 18.5251C22.1432 17.9071 22.8946 17.6822 23.6056 17.5866C24.2512 17.4998 25.0449 17.4999 25.9105 17.5H26.0895C26.9551 17.4999 27.7488 17.4998 28.3944 17.5866C28.9315 17.6588 29.4917 17.8048 30 18.1383V18C30 14.2288 30 12.3431 28.8284 11.1716C27.6569 10 25.7712 10 22 10Z" fill="black"/>
<path d="M10.8787 24.1213C11.7574 25 13.1716 25 16 25H19.25V29H16C15.5858 29 15.25 29.3358 15.25 29.75C15.25 30.1642 15.5858 30.5 16 30.5H21.5505L21.5251 30.4749C20.9071 29.8568 20.6822 29.1054 20.5866 28.3944C20.4998 27.7488 20.4999 26.9551 20.5 26.0895V22.9105C20.4999 22.4116 20.4999 21.9365 20.5165 21.5H10.0384C10.1089 22.7579 10.3094 23.552 10.8787 24.1213Z" fill="black"/>
<path fill-rule="evenodd" clip-rule="evenodd" d="M30 23V26C30 27.8856 30 28.8284 29.4142 29.4142C28.8284 30 27.8856 30 26 30C24.1144 30 23.1716 30 22.5858 29.4142C22 28.8284 22 27.8856 22 26V23C22 21.1144 22 20.1716 22.5858 19.5858C23.1716 19 24.1144 19 26 19C27.8856 19 28.8284 19 29.4142 19.5858C30 20.1716 30 21.1144 30 23ZM24.25 28C24.25 27.5858 24.5858 27.25 25 27.25H27C27.4142 27.25 27.75 27.5858 27.75 28C27.75 28.4142 27.4142 28.75 27 28.75H25C24.5858 28.75 24.25 28.4142 24.25 28Z" fill="white"/>
</g>
<defs>
<clipPath id="clip0_105_1351">
<rect width="40" height="40" rx="12" fill="white"/>
</clipPath>
</defs>
</svg>
