<svg viewBox="0 0 104 104" xmlns="http://www.w3.org/2000/svg" xmlns:xlink="http://www.w3.org/1999/xlink" width="104.000000" height="104.000000" fill="none" clip-path="url(#clipPath_2)">
	<defs>
		<clipPath id="clipPath_2">
			<rect width="104.000000" height="104.000000" x="0.000000" y="0.000000" rx="22.000000" fill="rgb(255,255,255)" />
		</clipPath>
		<clipPath id="clipPath_3">
			<rect width="68.000000" height="68.000000" x="18.500000" y="18.000000" rx="5.000000" fill="rgb(255,255,255)" />
		</clipPath>
	</defs>
	<rect id="Frame 8784" width="104.000000" height="104.000000" x="0.000000" y="0.000000" rx="22.000000" fill="rgb(255,255,255)" fill-opacity="0.119999997" />
	<g id="Bold / Arrows Action / Download Square" clip-path="url(#clipPath_3)" >
		<rect id="Bold / Arrows Action / Download Square" width="68.000000" height="68.000000" x="18.500000" y="18.000000" rx="5.000000" />
		<path id="Vector" d="M24.1667 52.0001C24.1667 38.6436 24.1667 31.9654 28.316 27.8161C32.4653 23.6667 39.1436 23.6667 52.5 23.6667C65.8565 23.6667 72.5347 23.6667 76.684 27.8161C80.8334 31.9654 80.8334 38.6436 80.8334 52.0001C80.8334 65.3565 80.8334 72.0348 76.684 76.1841C72.5347 80.3334 65.8565 80.3334 52.5 80.3334C39.1436 80.3334 32.4653 80.3334 28.316 76.1841C24.1667 72.0348 24.1667 65.3565 24.1667 52.0001ZM52.5 35.7084C53.6736 35.7084 54.625 36.6598 54.625 37.8334L54.625 52.5365L59.4974 47.6641C60.3273 46.8343 61.6728 46.8343 62.5026 47.6641C63.3325 48.494 63.3325 49.8395 62.5026 50.6693L54.0026 59.1693C53.6041 59.5679 53.0636 59.7917 52.5 59.7917C51.9364 59.7917 51.3959 59.5679 50.9974 59.1693L42.4974 50.6693C41.6676 49.8395 41.6676 48.494 42.4974 47.6641C43.3273 46.8343 44.6728 46.8343 45.5026 47.6641L50.375 52.5365L50.375 37.8334C50.375 36.6598 51.3264 35.7084 52.5 35.7084ZM41.1667 64.0417C39.9931 64.0417 39.0417 64.9931 39.0417 66.1667C39.0417 67.3403 39.9931 68.2917 41.1667 68.2917L63.8334 68.2917C65.007 68.2917 65.9584 67.3403 65.9584 66.1667C65.9584 64.9931 65.007 64.0417 63.8334 64.0417L41.1667 64.0417Z" fill="rgb(255,230,101)" fill-rule="evenodd" />
	</g>
</svg>
