<svg viewBox="0 0 32 32" xmlns="http://www.w3.org/2000/svg" xmlns:xlink="http://www.w3.org/1999/xlink" width="32.000000" height="32.000000" fill="none" >
	<rect id="vuesax/bulk/folder-open" width="32.000000" height="32.000000" x="0.000000" y="0.000000" fill="rgb(255,255,255)" fill-opacity="0" />
	<g id="vuesax/bulk/folder-open">
		<g id="folder-open">
			<path id="Vector" d="M28.08 15.7598L27.8667 15.4665C27.4933 15.0131 27.0533 14.6531 26.5467 14.3865C25.8667 13.9998 25.0933 13.7998 24.2933 13.7998L7.69333 13.7998C6.89333 13.7998 6.13333 13.9998 5.44 14.3865C4.92 14.6665 4.45333 15.0531 4.06667 15.5331C3.30667 16.5065 2.94667 17.7065 3.06667 18.9065L3.56 25.1331C3.73333 27.0131 3.96 29.3331 8.18666 29.3331L23.8133 29.3331C28.04 29.3331 28.2533 27.0131 28.44 25.1198L28.9333 18.9198C29.0533 17.7998 28.76 16.6798 28.08 15.7598ZM19.1867 23.1198L12.8 23.1198C12.28 23.1198 11.8667 22.6931 11.8667 22.1865C11.8667 21.6798 12.28 21.2531 12.8 21.2531L19.1867 21.2531C19.7067 21.2531 20.12 21.6798 20.12 22.1865C20.12 22.7065 19.7067 23.1198 19.1867 23.1198Z" fill="rgb(171.223,171.223,171.223)" fill-rule="nonzero" />
			<path id="Vector" d="M4.50667 15.0798C4.8 14.8132 5.09333 14.5732 5.44 14.3865C6.12 13.9998 6.89333 13.7998 7.69333 13.7998L24.3067 13.7998C25.1067 13.7998 25.8667 13.9998 26.56 14.3865C26.9067 14.5732 27.2133 14.8132 27.4933 15.0932L27.4933 14.3865L27.4933 13.0932C27.4933 8.33317 26.04 6.87984 21.28 6.87984L18.1067 6.87984C17.52 6.87984 17.5067 6.8665 17.16 6.41317L15.56 4.2665C14.8 3.27984 14.2 2.6665 12.2933 2.6665L10.72 2.6665C5.96 2.6665 4.50667 4.11984 4.50667 8.87984L4.50667 14.3998L4.50667 15.0798Z" fill="rgb(63,65,73)" fill-rule="nonzero" />
			<path id="Vector" opacity="0" />
		</g>
	</g>
</svg>
