<svg width="28" height="28" viewBox="0 0 28 28" fill="none" xmlns="http://www.w3.org/2000/svg">
<path fill-rule="evenodd" clip-rule="evenodd" d="M12.4447 7.15699L11.8591 6.74259C11.0234 6.15112 10.0247 5.8335 9.00087 5.8335H8.28633C7.81477 5.8335 7.33843 5.86323 6.894 6.02086C4.11419 7.00677 2.20206 10.611 2.34037 18.7866C2.36824 20.4338 2.75368 22.2543 4.23993 22.9651C4.70307 23.1866 5.24611 23.3335 5.86449 23.3335C6.60651 23.3335 7.19577 23.122 7.65057 22.8239C8.12748 22.5113 8.54738 22.1051 8.96714 21.699C9.48583 21.1972 10.0043 20.6956 10.6298 20.3712C11.3111 20.0179 12.0672 19.8335 12.8347 19.8335H15.1653C15.9327 19.8335 16.6889 20.0179 17.3702 20.3712C17.9957 20.6956 18.5142 21.1972 19.0328 21.699C19.4526 22.1051 19.8725 22.5113 20.3494 22.8239C20.8042 23.122 21.3935 23.3335 22.1355 23.3335C22.7539 23.3335 23.2969 23.1866 23.7601 22.9651C25.2463 22.2543 25.6318 20.4338 25.6596 18.7866C25.7979 10.611 23.8858 7.00676 21.106 6.02085C20.6616 5.86323 20.1852 5.8335 19.7137 5.8335H18.9991C17.9752 5.8335 16.9766 6.15112 16.1409 6.74259L15.5554 7.15698C15.1006 7.47883 14.5572 7.65168 14 7.65168C13.4429 7.65168 12.8995 7.47884 12.4447 7.15699ZM19.5417 10.5002C20.0249 10.5002 20.4167 10.8919 20.4167 11.3752C20.4167 11.8584 20.0249 12.2502 19.5417 12.2502C19.0584 12.2502 18.6667 11.8584 18.6667 11.3752C18.6667 10.8919 19.0584 10.5002 19.5417 10.5002ZM8.74999 10.7918C9.23324 10.7918 9.62499 11.1836 9.62499 11.6668V12.5418H10.5C10.9832 12.5418 11.375 12.9336 11.375 13.4168C11.375 13.9001 10.9832 14.2918 10.5 14.2918H9.62499V15.1668C9.62499 15.6501 9.23324 16.0418 8.74999 16.0418C8.26675 16.0418 7.87499 15.6501 7.87499 15.1668V14.2918H6.99999C6.51675 14.2918 6.12499 13.9001 6.12499 13.4168C6.12499 12.9336 6.51675 12.5418 6.99999 12.5418H7.87499V11.6668C7.87499 11.1836 8.26675 10.7918 8.74999 10.7918ZM22.1667 13.1252C22.1667 13.6084 21.7749 14.0002 21.2917 14.0002C20.8084 14.0002 20.4167 13.6084 20.4167 13.1252C20.4167 12.6419 20.8084 12.2502 21.2917 12.2502C21.7749 12.2502 22.1667 12.6419 22.1667 13.1252ZM17.7917 14.0002C18.2749 14.0002 18.6667 13.6084 18.6667 13.1252C18.6667 12.6419 18.2749 12.2502 17.7917 12.2502C17.3084 12.2502 16.9167 12.6419 16.9167 13.1252C16.9167 13.6084 17.3084 14.0002 17.7917 14.0002ZM20.4167 14.8752C20.4167 14.3919 20.0249 14.0002 19.5417 14.0002C19.0584 14.0002 18.6667 14.3919 18.6667 14.8752C18.6667 15.3584 19.0584 15.7502 19.5417 15.7502C20.0249 15.7502 20.4167 15.3584 20.4167 14.8752Z" fill="var(--menu-icon-color)"/>
</svg>
