<svg viewBox="0 0 28 28" xmlns="http://www.w3.org/2000/svg" xmlns:xlink="http://www.w3.org/1999/xlink" width="28.000000" height="28.000000" fill="none" >
	<rect id="vuesax/bulk/arrow-down" width="28.000000" height="28.000000" x="0.000000" y="0.000000" fill="rgb(255,255,255)" fill-opacity="0" />
	<g id="vuesax/bulk/arrow-down">
		<g id="arrow-down">
			<path id="Vector" d="M14 25.6668C20.4433 25.6668 25.6667 20.4435 25.6667 14.0002C25.6667 7.55684 20.4433 2.3335 14 2.3335C7.55668 2.3335 2.33334 7.55684 2.33334 14.0002C2.33334 20.4435 7.55668 25.6668 14 25.6668Z" fill="rgb(63,65,73)" fill-rule="nonzero" />
			<path id="Vector" d="M18.1183 13.9648C17.78 13.6265 17.22 13.6265 16.8817 13.9648L14.875 15.9715L14.875 9.9165C14.875 9.43817 14.4783 9.0415 14 9.0415C13.5217 9.0415 13.125 9.43817 13.125 9.9165L13.125 15.9715L11.1183 13.9648C10.78 13.6265 10.22 13.6265 9.88167 13.9648C9.54333 14.3032 9.54333 14.8632 9.88167 15.2015L13.3817 18.7015C13.5567 18.8765 13.7783 18.9582 14 18.9582C14.2217 18.9582 14.4433 18.8765 14.6183 18.7015L18.1183 15.2015C18.4567 14.8632 18.4567 14.3032 18.1183 13.9648Z" fill="rgb(213,216,228)" fill-rule="nonzero" />
			<path id="Vector" opacity="0" />
		</g>
	</g>
</svg>
