<svg viewBox="0 0 28 28" xmlns="http://www.w3.org/2000/svg" xmlns:xlink="http://www.w3.org/1999/xlink" width="28.000000"
     height="28.000000" fill="none">
    <rect id="vuesax/bulk/arrow-down" width="28.000000" height="28.000000" x="0.000000" y="0.000000"
          fill="rgb(255,255,255)" fill-opacity="0" transform="matrix(-1,2.17102e-22,-2.17102e-22,-1,28,28)"/>
    <g id="vuesax/bulk/arrow-down">
        <g id="arrow-down">
            <path id="Vector"
                  d="M11.6667 23.3333C18.11 23.3333 23.3333 18.11 23.3333 11.6667C23.3333 5.22334 18.11 0 11.6667 0C5.22334 0 0 5.22334 0 11.6667C0 18.11 5.22334 23.3333 11.6667 23.3333Z"
                  fill="rgb(20.5472,69.1854,46.4876)" fill-rule="nonzero"
                  transform="matrix(-1,2.17102e-22,-2.17102e-22,-1,25.6667,25.6665)"/>
            <path id="Vector"
                  d="M8.49042 4.92333C8.15208 4.585 7.59208 4.585 7.25375 4.92333L5.24708 6.93L5.24708 0.875C5.24708 0.396667 4.85042 0 4.37208 0C3.89375 0 3.49708 0.396667 3.49708 0.875L3.49708 6.93L1.49042 4.92333C1.15208 4.585 0.592083 4.585 0.25375 4.92333C-0.0845833 5.26167 -0.0845833 5.82167 0.25375 6.16L3.75375 9.66C3.92875 9.835 4.15042 9.91667 4.37208 9.91667C4.59375 9.91667 4.81542 9.835 4.99042 9.66L8.49042 6.16C8.82875 5.82167 8.82875 5.26167 8.49042 4.92333Z"
                  fill="rgb(18,183,106)" fill-rule="nonzero"
                  transform="matrix(-1,2.17102e-22,-2.17102e-22,-1,18.3721,18.9585)"/>
            <path id="Vector" opacity="0" transform="matrix(-1,2.17102e-22,-2.17102e-22,-1,28,28)"/>
        </g>
    </g>
</svg>
