<svg width="28" height="28" viewBox="0 0 28 28" fill="none" xmlns="http://www.w3.org/2000/svg">
<path d="M23.38 7.95663L16.66 3.25497C14.8283 1.97163 12.0167 2.04163 10.255 3.40663L4.41 7.9683C3.24333 8.8783 2.32167 10.745 2.32167 12.215V20.265C2.32167 23.24 4.73667 25.6666 7.71167 25.6666H20.2883C23.2633 25.6666 25.6783 23.2516 25.6783 20.2766V12.3666C25.6783 10.7916 24.6633 8.85497 23.38 7.95663ZM14.875 21C14.875 21.4783 14.4783 21.875 14 21.875C13.5217 21.875 13.125 21.4783 13.125 21V17.5C13.125 17.0216 13.5217 16.625 14 16.625C14.4783 16.625 14.875 17.0216 14.875 17.5V21Z" fill="var(--menu-icon-color)"/>
</svg>
