<svg width="48" height="48" viewBox="0 0 48 48" fill="none" xmlns="http://www.w3.org/2000/svg">
<rect width="48" height="48" rx="12" fill="white" fill-opacity="0.12"/>
<path d="M24.2801 36.3267C23.7001 36.3267 23.1467 36.2467 22.6067 36.12C22.4667 36.7533 22.1867 37.3333 21.8001 37.82C22.5867 38.0467 23.4201 38.1733 24.2801 38.1733C25.1401 38.1733 25.9734 38.0467 26.7601 37.8133C26.3734 37.3267 26.0934 36.7467 25.9534 36.1133C25.4134 36.2467 24.8601 36.32 24.2801 36.32V36.3267ZM15.5067 28.06C16.0467 28.06 16.6267 28.2333 17.2267 28.5667C17.4401 25.46 19.0801 22.4867 20.3001 20.28C20.6867 19.5733 21.0267 18.96 21.2934 18.4067C21.3667 18.4667 21.4334 18.5267 21.5001 18.58C22.4601 19.3733 23.8001 20.1667 25.0734 19.6867C25.8267 19.4067 26.6201 18.94 27.2467 18.3467C27.5201 18.92 27.8601 19.5533 28.2667 20.28C29.4867 22.4867 31.1267 25.46 31.3401 28.5667C31.9401 28.2333 32.5201 28.06 33.0601 28.06H33.1534C32.6001 22.5133 28.3734 17.8133 28.4734 16.0733L28.5467 14.7667C28.6137 14.1666 28.5533 13.5591 28.3694 12.9839C28.1855 12.4088 27.8823 11.8789 27.4796 11.429C27.0768 10.9791 26.5837 10.6193 26.0323 10.373C25.481 10.1268 24.8839 9.99965 24.2801 10C21.9067 10 19.9867 11.9267 19.9867 14.2933C19.9867 14.4533 20.0001 14.6133 20.0134 14.7667L20.0867 16.0733C20.1867 17.8133 15.9601 22.5133 15.4067 28.06H15.5067ZM26.8267 16.9467C26.8267 16.9467 26.7734 17.0067 26.7467 17.04C26.6934 17.1067 26.6401 17.1667 26.5801 17.2333C26.4134 17.4133 26.2267 17.5867 26.0334 17.7467C25.7134 18 25.3601 18.2133 24.9934 18.3933C24.6267 18.5733 24.2601 18.68 23.8534 18.56C23.5001 18.46 23.1534 18.2467 22.8401 18.0533C22.4452 17.798 22.0884 17.4883 21.7801 17.1333C21.7401 17.0867 21.6867 17.0467 21.6467 16.9933C21.6067 16.9467 21.5401 16.88 21.5267 16.82C21.5414 16.7986 21.5547 16.7763 21.5667 16.7533C21.6067 16.6867 21.6467 16.6267 21.6867 16.56C21.8534 16.3133 22.0734 16.1067 22.3001 15.9133C22.9734 15.38 23.9067 15.16 24.7534 15.3133C25.2067 15.4 25.6334 15.5733 26.0134 15.8333C26.1867 15.9533 26.3467 16.1067 26.4934 16.26C26.6001 16.38 26.9201 16.7333 26.9067 16.8333C26.9067 16.8067 26.8267 16.9267 26.8134 16.9467H26.8267ZM21.5267 16.8267C21.4601 16.94 21.5134 16.8667 21.5267 16.8267V16.8267ZM26.2734 13.5467C26.6401 13.5467 26.9401 13.8467 26.9401 14.2133C26.9401 14.4467 26.8134 14.64 26.6334 14.76C26.5267 14.8267 26.4067 14.88 26.2734 14.88C25.9201 14.88 25.6401 14.6 25.6134 14.2533C25.6134 14.24 25.6067 14.2267 25.6067 14.2133C25.6067 13.8467 25.9067 13.5467 26.2734 13.5467ZM22.1667 13.5467C22.5334 13.5467 22.8334 13.8467 22.8334 14.2133C22.8334 14.2333 22.8201 14.2533 22.8201 14.28C22.8067 14.4445 22.7323 14.598 22.6113 14.7103C22.4904 14.8226 22.3318 14.8855 22.1667 14.8867C22.0334 14.8867 21.9201 14.84 21.8134 14.7733C21.6267 14.6533 21.4934 14.4533 21.4934 14.22C21.4934 13.8533 21.7934 13.5533 22.1601 13.5533L22.1667 13.5467Z" fill="#FFE665"/>
<path d="M19.4334 28.4933C19.0067 28.4933 18.6601 28.78 18.4734 29.0466C18.4401 29.0933 18.4134 29.14 18.3867 29.2C18.1734 29.6266 17.7601 29.88 17.3267 29.88C17.2934 29.88 17.2667 29.8733 17.2334 29.8666C17.0667 29.8533 16.9067 29.8133 16.7534 29.72C16.3601 29.4866 15.9201 29.3 15.5067 29.3C15.4534 29.3 15.4067 29.3133 15.3534 29.32C15.1867 29.34 15.0267 29.38 14.8801 29.48C14.3267 29.8333 14.2467 30.5733 14.3201 31.2666C14.3934 31.96 13.8601 32.5333 13.1667 32.5533C13.1001 32.5533 13.0467 32.56 12.9934 32.5733C12.4667 32.6733 11.7201 33.1266 12.1067 34.2066C12.6201 35.6466 15.1201 36.9933 17.3534 37.9466C17.7401 38.1133 18.1334 38.1866 18.5201 38.1866C19.2867 38.1866 20.0201 37.88 20.5601 37.3666C21.0067 36.9466 21.3134 36.38 21.4201 35.7266C21.4401 35.6 21.4667 35.4733 21.4734 35.34C21.5734 32.88 21.4334 30 20.3334 28.9266C20.0134 28.6133 19.7067 28.5 19.4401 28.5L19.4334 28.4933ZM35.5734 32.56L35.4001 32.54C34.7001 32.52 34.1734 31.9466 34.2467 31.2533C34.3201 30.56 34.2467 29.8266 33.6867 29.4666C33.5401 29.3733 33.3801 29.3266 33.2134 29.3066C33.1601 29.3066 33.1134 29.2866 33.0601 29.2866C32.6467 29.2866 32.2067 29.4733 31.8134 29.7066C31.6601 29.8 31.4934 29.84 31.3334 29.8533C31.3001 29.8533 31.2734 29.8666 31.2401 29.8666C30.8067 29.8666 30.3934 29.6133 30.1801 29.1866C30.1534 29.1266 30.1201 29.08 30.0934 29.0333C29.9001 28.7666 29.5601 28.48 29.1334 28.48C28.8601 28.48 28.5601 28.5933 28.2401 28.9066C27.1401 29.9733 26.9934 32.86 27.1001 35.32C27.1001 35.4533 27.1334 35.58 27.1534 35.7066C27.2667 36.36 27.5734 36.9266 28.0134 37.3466C28.5534 37.86 29.2867 38.1666 30.0534 38.1666C30.4401 38.1666 30.8334 38.0933 31.2201 37.9266C33.4534 36.9733 35.9601 35.6266 36.4667 34.1866C36.8534 33.1066 36.1067 32.6533 35.5801 32.5533L35.5734 32.56Z" fill="#FFE665"/>
</svg>
