<svg width="42" height="42" viewBox="0 0 42 42" fill="none" xmlns="http://www.w3.org/2000/svg">
<path d="M40.0681 24.7065C40.922 24.8724 41.7549 24.315 41.8565 23.4511C42.2778 19.8664 41.7688 16.2239 40.3662 12.8791C38.7601 9.04879 36.0541 5.78082 32.5907 3.4884C29.1272 1.19598 25.0617 -0.0179229 20.9084 0.00019991C16.755 0.0183227 12.7003 1.26766 9.25695 3.59021C5.81362 5.91277 3.13633 9.20423 1.56365 13.0484C-0.00903307 16.8925 -0.406475 21.1167 0.421582 25.1867C1.24964 29.2568 3.266 32.9898 6.21569 35.9139C8.79157 38.4674 11.9782 40.3038 15.4596 41.256C16.2987 41.4855 17.1276 40.922 17.2935 40.0681C17.4595 39.2142 16.8991 38.3943 16.0632 38.1537C13.1927 37.3276 10.5666 35.7915 8.43334 33.6768C5.9261 31.1914 4.21219 28.0182 3.50834 24.5587C2.8045 21.0992 3.14232 17.5086 4.4791 14.2411C5.81588 10.9736 8.09157 8.17585 11.0184 6.20168C13.9452 4.22751 17.3918 3.16557 20.9221 3.15017C24.4525 3.13477 27.9081 4.16658 30.8521 6.11514C33.796 8.06369 36.096 10.8415 37.4613 14.0972C38.6229 16.8673 39.0634 19.8776 38.754 22.8486C38.6639 23.7138 39.2142 24.5405 40.0681 24.7065Z" fill="#428BF9"/>
</svg>
