<svg width="128" height="128" viewBox="0 0 128 128" fill="none" xmlns="http://www.w3.org/2000/svg">
<path fill-rule="evenodd" clip-rule="evenodd" d="M60.4138 3.94331C57.1721 5.35224 57.1516 5.64472 59.1432 22.3288C60.1416 30.6954 61.1815 37.7872 61.4543 38.0883C62.3308 39.0579 68.7013 38.5281 71.3034 37.2694L73.733 36.0944L74.0923 31.1273C74.2905 28.3948 74.6231 21.609 74.8316 16.0478C75.2086 5.99696 75.2029 5.92754 73.8839 4.52486C72.6566 3.2195 72.1685 3.11537 67.3886 3.13585C64.2956 3.14951 61.4941 3.47329 60.4138 3.94331ZM77.6865 4.15272C77.1575 4.73598 76.5914 6.66785 76.3937 8.56274C76.097 11.4051 76.2183 12.1516 77.1683 13.3221C78.2663 14.6759 78.3762 14.6924 81.549 13.9828C83.3395 13.5822 84.8772 13.3415 84.966 13.4479C85.0555 13.5537 84.5474 17.8659 83.8373 23.0299C82.34 33.9093 82.3178 33.8416 87.4053 33.8416C93.4131 33.8416 93.7707 33.4666 97.5175 23.2404C99.3371 18.2739 101 14.0118 101.213 13.77C101.426 13.5281 102.959 13.6437 104.62 14.0266C107.537 14.6992 107.68 14.6753 108.773 13.3284C109.729 12.1505 109.85 11.409 109.553 8.56274C108.964 2.91961 109.554 3.11366 92.9734 3.11366C79.8074 3.11366 78.5499 3.19901 77.6865 4.15272ZM41.4388 8.21221C37.8981 9.43336 35.7374 11.557 35.7374 13.8161C35.7374 14.6599 36.2499 18.0377 36.8764 21.3228C37.5028 24.6078 38.0154 27.3728 38.0154 27.4678C38.0154 27.865 33.9411 29.3024 33.5316 29.0491C33.2856 28.8978 32.732 27.2891 32.3015 25.475C31.4159 21.7433 29.2096 19.0466 27.042 19.0466C25.0527 19.0466 18.8952 23.183 18.4589 24.8127C18.2254 25.6856 19.3189 30.1633 21.5667 37.5403C25.7914 51.4065 26.0693 51.781 31.7052 51.221C34.702 50.9229 35.7095 50.5638 36.734 49.4263C38.3565 47.6253 38.3355 46.0223 36.6178 40.4964C35.1616 35.8144 35.1895 35.7114 37.9926 35.4132C39.3458 35.2693 39.4346 35.4844 40.6266 41.7642C41.9906 48.9472 42.399 49.5515 46.2079 50.0101C54.1998 50.9741 56.2558 50.965 56.6396 49.964C56.9637 49.1213 55.1059 21.3518 54.1184 12.2717C53.6531 7.99086 52.6086 7.09235 48.1243 7.11568C46.1589 7.12592 43.1644 7.617 41.4388 8.21221ZM79.0317 40.3712C67.6494 43.5874 66.0537 44.1843 64.6515 45.7526C62.5774 48.072 62.6007 50.5774 64.7358 54.8037C67.3687 60.0149 66.9108 59.9267 76.9638 57.1532C81.7922 55.8211 86.1523 54.8885 86.6529 55.0802C87.6017 55.4438 87.9093 57.4599 87.0932 57.9641C86.3847 58.4017 66.9358 64.0004 66.1243 64.0004C65.7359 64.0004 64.2369 62.4657 62.7921 60.5902C61.3478 58.7141 59.7309 56.9472 59.1996 56.6633C58.6677 56.3793 52.7909 55.7289 46.1389 55.2179C33.0168 54.2102 32.3721 54.287 29.7563 57.172C28.8041 58.2213 28.5866 59.3986 28.4231 64.3783C28.316 67.6519 28.3827 70.9466 28.5717 71.6995C28.7608 72.4529 32.0025 77.1941 35.7749 82.2363C39.5474 87.2785 42.854 91.9833 43.1234 92.6906C43.4503 93.5498 42.8745 98.6939 41.3926 108.152C40.1716 115.948 39.1681 122.5 39.163 122.713C39.1584 122.925 39.5571 123.501 40.0491 123.993C40.8339 124.777 43.8187 124.887 64.213 124.887C84.6073 124.887 87.5921 124.777 88.3769 123.993C88.8689 123.501 89.2716 122.96 89.2716 122.79C89.2716 122.62 88.3518 116.836 87.2276 109.938C85.7804 101.057 85.3425 97.0471 85.7269 96.2038C86.0259 95.5489 91.0006 88.8638 96.7823 81.348C102.563 73.8322 107.749 66.9884 108.306 66.1394C110.194 63.2601 109.66 61.281 104.085 50.5029C101.207 44.9383 98.4259 39.9018 97.9059 39.3111C96.9047 38.1742 93.7912 36.664 92.5645 36.7203C92.163 36.7385 86.0732 38.3819 79.0317 40.3712Z" fill="#FFE665"/>
</svg>
