<svg width="48" height="48" viewBox="0 0 48 48" fill="none" xmlns="http://www.w3.org/2000/svg">
<rect width="48" height="48" rx="12" fill="white" fill-opacity="0.12"/>
<path d="M23.3667 26.5933C23.3667 28.8933 22.1667 30.34 20.2534 30.34C18.3401 30.34 17.1401 28.8867 17.1401 26.5933C17.1401 24.3 18.3401 22.84 20.2534 22.84C22.1667 22.84 23.3667 24.2867 23.3667 26.5933ZM26.0401 18.48L25.2067 18.5333C24.7334 18.5667 24.5201 18.7333 24.5201 19.04C24.5201 19.36 24.7867 19.54 25.1534 19.54C25.6601 19.54 26.0401 19.2133 26.0401 18.7667V18.48ZM38.0001 23.6667C38.0001 31.2933 31.9601 37.3333 24.3334 37.3333C16.7067 37.3333 10.6667 31.2933 10.6667 23.6667C10.6667 16.04 16.7067 10 24.3334 10C31.9601 10 38.0001 16.04 38.0001 23.6667ZM27.5001 18.3133C27.5001 19.42 28.1134 20.1 29.1067 20.1C29.9534 20.1 30.4801 19.6267 30.5667 18.9533H29.9067C29.8201 19.32 29.5267 19.5267 29.1001 19.5267C28.5401 19.5267 28.1934 19.0667 28.1934 18.32C28.1934 17.5733 28.5401 17.14 29.1001 17.14C29.5534 17.14 29.8334 17.4 29.9067 17.7267H30.5667C30.4801 17.0667 29.9667 16.5667 29.1067 16.5667C28.1067 16.56 27.5001 17.2333 27.5001 18.32V18.3133ZM18.3134 16.62V20.0267H18.9867V17.9333C18.9867 17.4933 19.3001 17.14 19.7134 17.14C20.1267 17.14 20.3734 17.38 20.3734 17.7667V20.0267H21.0334V17.8733C21.0334 17.46 21.3134 17.14 21.7601 17.14C22.2067 17.14 22.4201 17.3667 22.4201 17.84V20.0267H23.0934V17.6733C23.0934 16.9667 22.6934 16.5467 22.0001 16.5467C21.5267 16.5467 21.1334 16.7867 20.9601 17.16H20.9067C20.7534 16.7933 20.4334 16.5467 19.9667 16.5467C19.5001 16.5467 19.1601 16.7733 19.0201 17.16H18.9734V16.6133H18.3201L18.3134 16.62ZM24.5667 26.5933C24.5667 23.6267 22.9134 21.76 20.2601 21.76C17.6067 21.76 15.9534 23.6267 15.9534 26.5933C15.9534 29.56 17.6067 31.42 20.2601 31.42C22.9134 31.42 24.5667 29.5533 24.5667 26.5933ZM24.9867 20.0867C25.4401 20.0867 25.8067 19.8933 26.0134 19.5467H26.0667V20.0267H26.7201V17.6933C26.7201 16.98 26.2401 16.5533 25.3801 16.5533C24.6001 16.5533 24.0534 16.9333 23.9801 17.5H24.6334C24.7067 17.2533 24.9734 17.1133 25.3467 17.1133C25.8067 17.1133 26.0467 17.32 26.0467 17.7V18L25.1201 18.0533C24.3067 18.1 23.8467 18.4533 23.8467 19.0733C23.8401 19.6867 24.3201 20.08 24.9801 20.08L24.9867 20.0867ZM32.3601 28.6C32.3601 27.2733 31.5867 26.5 29.6401 26.0733L28.6001 25.8467C27.3201 25.5667 26.8201 25.06 26.8201 24.3267C26.8201 23.38 27.7201 22.8067 28.8867 22.8067C30.0534 22.8067 30.9134 23.4333 31.0201 24.46H32.1867C32.1334 22.8733 30.7867 21.76 28.9201 21.76C27.0534 21.76 25.6267 22.8467 25.6267 24.38C25.6267 25.7067 26.4401 26.56 28.3134 26.9667L29.3534 27.1933C30.6467 27.4733 31.1734 28 31.1734 28.78C31.1734 29.6933 30.2467 30.3667 28.9867 30.3667C27.6467 30.3667 26.7134 29.7533 26.5734 28.7533H25.4067C25.5201 30.3667 26.8801 31.4133 28.9201 31.4133C30.9601 31.4133 32.3601 30.3267 32.3601 28.6Z" fill="#FFE665"/>
</svg>
