<svg width="104" height="104" viewBox="0 0 104 104" fill="none" xmlns="http://www.w3.org/2000/svg">
<g clip-path="url(#clip0_1_720)">
<path d="M66.2875 46.871H37.7119C33.8713 46.871 30.7579 43.7544 30.7579 39.9098V19.4974C30.7579 15.6528 33.8713 12.5361 37.7119 12.5361H66.2875C70.1281 12.5361 73.2415 15.6528 73.2415 19.4974V39.9098C73.2415 43.7544 70.1281 46.871 66.2875 46.871Z" fill="#141414" stroke="#E9EFF8" stroke-width="2.5" stroke-miterlimit="10" stroke-linecap="round" stroke-linejoin="round"/>
<path d="M54.8433 30.96H49.1561C46.6268 30.96 44.5767 33.0125 44.5767 35.5441V46.7612H59.423V35.5441C59.423 33.0125 57.3726 30.96 54.8433 30.96Z" stroke="#E9EFF8" stroke-width="2.5" stroke-miterlimit="10" stroke-linecap="round" stroke-linejoin="round"/>
<path d="M51.9998 49.1626V65.2765" stroke="#E9EFF8" stroke-width="2.5" stroke-miterlimit="10" stroke-linecap="round" stroke-linejoin="round"/>
<path d="M11.9933 65.2766V62.8425C11.9933 60.4266 13.9498 58.4678 16.3635 58.4678H87.6364C90.0499 58.4678 92.0066 60.4263 92.0066 62.8425V65.2766" stroke="#E9EFF8" stroke-width="2.5" stroke-miterlimit="10" stroke-linecap="round" stroke-linejoin="round"/>
<path d="M74.7179 7.63272V14.1095C74.7179 18.2941 71.3375 21.7145 67.1573 21.7145C62.9773 21.7145 59.5605 18.2941 59.5605 14.1095C59.5605 18.2941 56.1801 21.7145 51.9999 21.7145C47.8199 21.7145 44.4757 18.3306 44.4395 14.146C44.4395 18.3306 41.0227 21.751 36.8424 21.751C32.6622 21.751 29.2818 18.3306 29.2818 14.146V7.63272C29.2818 4.2488 32.0443 1.4834 35.4247 1.4834H68.575C71.9554 1.4834 74.7179 4.2488 74.7179 7.63272Z" fill="#141414" stroke="#FFE665" stroke-width="2.5" stroke-miterlimit="10" stroke-linecap="round" stroke-linejoin="round"/>
<path d="M12.0108 83.9921C14.9791 83.9921 17.3853 81.5834 17.3853 78.612C17.3853 75.6407 14.9791 73.2319 12.0108 73.2319C9.04259 73.2319 6.63634 75.6407 6.63634 78.612C6.63634 81.5834 9.04259 83.9921 12.0108 83.9921Z" fill="#141414" stroke="#FFE665" stroke-width="2.5" stroke-miterlimit="10" stroke-linecap="round" stroke-linejoin="round"/>
<path d="M14.3623 87.6089H9.65935C5.14306 87.6089 1.48172 91.274 1.48172 95.795V97.3489C1.48172 100.203 3.79321 102.517 6.64434 102.517H17.3776C20.2288 102.517 22.5403 100.203 22.5403 97.3489V95.795C22.5403 91.274 18.8789 87.6089 14.3623 87.6089Z" fill="#141414" stroke="#FFE665" stroke-width="2.5" stroke-miterlimit="10" stroke-linecap="round" stroke-linejoin="round"/>
<path d="M51.9999 83.9921C54.9681 83.9921 57.3744 81.5834 57.3744 78.612C57.3744 75.6407 54.9681 73.2319 51.9999 73.2319C49.0316 73.2319 46.6254 75.6407 46.6254 78.612C46.6254 81.5834 49.0316 83.9921 51.9999 83.9921Z" fill="#141414" stroke="#FFE665" stroke-width="2.5" stroke-miterlimit="10" stroke-linecap="round" stroke-linejoin="round"/>
<path d="M54.3513 87.6089H49.6484C45.1321 87.6089 41.4707 91.274 41.4707 95.795V97.3489C41.4707 100.203 43.7822 102.517 46.6333 102.517H57.3666C60.2178 102.517 62.5293 100.203 62.5293 97.3489V95.795C62.5293 91.274 58.8679 87.6089 54.3513 87.6089Z" fill="#141414" stroke="#FFE665" stroke-width="2.5" stroke-miterlimit="10" stroke-linecap="round" stroke-linejoin="round"/>
<path d="M91.9889 83.9921C94.9571 83.9921 97.3634 81.5834 97.3634 78.612C97.3634 75.6407 94.9571 73.2319 91.9889 73.2319C89.0206 73.2319 86.6144 75.6407 86.6144 78.612C86.6144 81.5834 89.0206 83.9921 91.9889 83.9921Z" fill="#141414" stroke="#FFE665" stroke-width="2.5" stroke-miterlimit="10" stroke-linecap="round" stroke-linejoin="round"/>
<path d="M94.3404 87.6089H89.6374C85.1208 87.6089 81.4597 91.274 81.4597 95.795V97.3489C81.4597 100.203 83.7712 102.517 86.6224 102.517H97.3557C100.207 102.517 102.518 100.203 102.518 97.3489V95.795C102.518 91.274 98.8569 87.6089 94.3404 87.6089Z" fill="#141414" stroke="#FFE665" stroke-width="2.5" stroke-miterlimit="10" stroke-linecap="round" stroke-linejoin="round"/>
</g>
<defs>
<clipPath id="clip0_1_720">
<rect width="104" height="104" fill="white"/>
</clipPath>
</defs>
</svg>
