<svg width="28" height="28" viewBox="0 0 28 28" fill="none" xmlns="http://www.w3.org/2000/svg">
<path fill-rule="evenodd" clip-rule="evenodd" d="M25.6667 14.0002C25.6667 20.4435 20.4433 25.6668 14 25.6668C7.55669 25.6668 2.33334 20.4435 2.33334 14.0002C2.33334 7.55684 7.55669 2.3335 14 2.3335C20.4433 2.3335 25.6667 7.55684 25.6667 14.0002ZM17.5 10.5002C17.5 12.4332 15.933 14.0002 14 14.0002C12.067 14.0002 10.5 12.4332 10.5 10.5002C10.5 8.56717 12.067 7.00016 14 7.00016C15.933 7.00016 17.5 8.56717 17.5 10.5002ZM14 23.9168C16.0814 23.9168 18.013 23.2756 19.6081 22.1799C20.3126 21.696 20.6137 20.7741 20.2041 20.0239C19.355 18.4688 17.6053 17.5002 13.9999 17.5002C10.3946 17.5002 8.64497 18.4688 7.79584 20.0239C7.38623 20.774 7.68729 21.6959 8.39179 22.1798C9.98689 23.2756 11.9186 23.9168 14 23.9168Z" fill="var(--menu-icon-color)"/>
</svg>
