<svg width="104" height="104" viewBox="0 0 104 104" fill="none" xmlns="http://www.w3.org/2000/svg">
<g clip-path="url(#clip0_1_1552)">
<path d="M62.8203 7.24542C65.7615 11.4935 70.9134 13.6286 75.996 12.7028C85.0434 11.0558 92.9444 18.96 91.2974 28.0042C90.3716 33.0868 92.5067 38.2418 96.7548 41.1799C104.316 46.4105 104.316 57.5898 96.7548 62.8204C92.5067 65.7616 90.3716 70.9135 91.2974 75.9962C92.9444 85.0435 85.0402 92.9445 75.996 91.2975C70.9134 90.3717 65.7584 92.5068 62.8203 96.7549C57.5897 104.316 46.4104 104.316 41.1798 96.7549C38.2385 92.5068 33.0866 90.3717 28.004 91.2975C18.9567 92.9445 11.0557 85.0403 12.7027 75.9962C13.6285 70.9135 11.4934 65.7585 7.24529 62.8204C-0.315651 57.5898 -0.315651 46.4105 7.24529 41.1799C11.4934 38.2387 13.6285 33.0868 12.7027 28.0042C11.0557 18.9568 18.9599 11.0558 28.004 12.7028C33.0866 13.6286 38.2417 11.4935 41.1798 7.24542C46.4104 -0.315529 57.5897 -0.315529 62.8203 7.24542Z" fill="#141414" stroke="#FFE665" stroke-width="2.5" stroke-miterlimit="10" stroke-linecap="round" stroke-linejoin="round"/>
<path d="M66.4574 36.9409L37.0229 68.0601" stroke="#E9EFF8" stroke-width="2.5" stroke-miterlimit="10" stroke-linecap="round" stroke-linejoin="round"/>
<path d="M66.152 68.498C67.8859 68.498 69.2916 67.0924 69.2916 65.3584C69.2916 63.6244 67.8859 62.2188 66.152 62.2188C64.418 62.2188 63.0123 63.6244 63.0123 65.3584C63.0123 67.0924 64.418 68.498 66.152 68.498Z" stroke="#E9EFF8" stroke-width="2.5" stroke-miterlimit="10" stroke-linecap="round" stroke-linejoin="round"/>
<path d="M37.848 41.7876C39.582 41.7876 40.9876 40.3819 40.9876 38.6479C40.9876 36.914 39.582 35.5083 37.848 35.5083C36.114 35.5083 34.7084 36.914 34.7084 38.6479C34.7084 40.3819 36.114 41.7876 37.848 41.7876Z" stroke="#E9EFF8" stroke-width="2.5" stroke-miterlimit="10" stroke-linecap="round" stroke-linejoin="round"/>
</g>
<defs>
<clipPath id="clip0_1_1552">
<rect width="104" height="104" fill="white"/>
</clipPath>
</defs>
</svg>
