<svg viewBox="0 0 40 40" xmlns="http://www.w3.org/2000/svg" xmlns:xlink="http://www.w3.org/1999/xlink" width="40.000000" height="40.000000" fill="none" clip-path="url(#clipPath_0)" >
	<defs>
		<clipPath id="clipPath_0">
			<rect width="40.000000" height="40.000000" x="0.000000" y="0.000000" rx="12.000000" fill="rgb(255,255,255)" />
		</clipPath>
		<clipPath id="clipPath_1">
			<rect width="24.000000" height="24.000000" x="-4.000000" y="8.000000" fill="rgb(255,255,255)" />
		</clipPath>
		<clipPath id="clipPath_2">
			<rect width="24.000000" height="24.000000" x="8.000000" y="8.000000" fill="rgb(255,255,255)" />
		</clipPath>
		<clipPath id="clipPath_3">
			<rect width="24.000000" height="24.000000" x="-16.000000" y="8.000000" fill="rgb(255,255,255)" />
		</clipPath>
		<clipPath id="clipPath_4">
			<rect width="24.000000" height="24.000000" x="8.000000" y="8.000000" fill="rgb(255,255,255)" />
		</clipPath>
		<clipPath id="clipPath_5">
			<rect width="24.000000" height="24.000000" x="20.000000" y="8.000000" fill="rgb(255,255,255)" />
		</clipPath>
		<clipPath id="clipPath_6">
			<rect width="24.000000" height="24.000000" x="20.000000" y="8.000000" fill="rgb(255,255,255)" />
		</clipPath>
	</defs>
	<rect id="icons" width="40.000000" height="40.000000" x="0.000000" y="0.000000" rx="12.000000" fill="rgb(255,255,255)" fill-opacity="0.119999997" />
	<g id="Bold / Security / Shield Check" opacity="0" clip-path="url(#clipPath_1)">
		<rect id="Bold / Security / Shield Check" width="24.000000" height="24.000000" x="-4.000000" y="8.000000" opacity="0" />
		<path id="Vector" d="M-0.622484 13.0824C-1 13.6203 -1 15.2191 -1 18.4167L-1 19.9914C-1 25.6294 3.23896 28.3655 5.89856 29.5273C6.62001 29.8424 6.98074 30 8 30C9.01926 30 9.37999 29.8424 10.1014 29.5273C12.761 28.3655 17 25.6294 17 19.9914L17 18.4167C17 15.2191 17 13.6203 16.6225 13.0824C16.245 12.5445 14.7417 12.03 11.7351 11.0008L11.1623 10.8047C9.59502 10.2682 8.81139 10 8 10C7.18861 10 6.40498 10.2682 4.83772 10.8047L4.26491 11.0008C1.25832 12.03 -0.244969 12.5445 -0.622484 13.0824ZM11.0595 18.4995C11.3353 18.1905 11.3085 17.7164 10.9995 17.4405C10.6905 17.1647 10.2164 17.1915 9.94055 17.5005L6.92857 20.8739L6.05945 19.9005C5.78358 19.5915 5.30947 19.5647 5.00049 19.8405C4.69151 20.1164 4.66467 20.5905 4.94055 20.8995L6.36912 22.4995C6.51141 22.6589 6.71492 22.75 6.92857 22.75C7.14222 22.75 7.34573 22.6589 7.48802 22.4995L11.0595 18.4995Z" fill="rgb(255,221,45)" fill-rule="evenodd" />
	</g>
	<g id="Bold / Security / Shield Plus" opacity="0" clip-path="url(#clipPath_2)">
		<rect id="Bold / Security / Shield Plus" width="24.000000" height="24.000000" x="8.000000" y="8.000000" opacity="0" />
		<path id="Vector" d="M11.3775 13.0824C11 13.6203 11 15.2191 11 18.4167L11 19.9914C11 25.6294 15.239 28.3655 17.8986 29.5273C18.62 29.8424 18.9807 30 20 30C21.0193 30 21.38 29.8424 22.1014 29.5273C24.761 28.3655 29 25.6294 29 19.9914L29 18.4167C29 15.2191 29 13.6203 28.6225 13.0824C28.245 12.5445 26.7417 12.03 23.7351 11.0008L23.1623 10.8047C21.595 10.2682 20.8114 10 20 10C19.1886 10 18.405 10.2682 16.8377 10.8047L16.2649 11.0008C13.2583 12.03 11.755 12.5445 11.3775 13.0824ZM20.75 17C20.75 16.5858 20.4142 16.25 20 16.25C19.5858 16.25 19.25 16.5858 19.25 17L19.25 19.25L17 19.25C16.5858 19.25 16.25 19.5858 16.25 20C16.25 20.4142 16.5858 20.75 17 20.75L19.25 20.75L19.25 23C19.25 23.4142 19.5858 23.75 20 23.75C20.4142 23.75 20.75 23.4142 20.75 23L20.75 20.75L23 20.75C23.4142 20.75 23.75 20.4142 23.75 20C23.75 19.5858 23.4142 19.25 23 19.25L20.75 19.25L20.75 17Z" fill="rgb(255,221,45)" fill-rule="evenodd" />
	</g>
	<g id="Bold / Electronic, Devices / Display" opacity="0" clip-path="url(#clipPath_3)">
		<rect id="Bold / Electronic, Devices / Display" width="24.000000" height="24.000000" x="-16.000000" y="8.000000" opacity="0" />
		<path id="Vector" d="M-14 16.7599C-14 14.0447 -14 12.687 -13.1213 11.8435C-12.2426 11 -10.8284 11 -8 11L0 11C2.82843 11 4.24264 11 5.12132 11.8435C6 12.687 6 14.0447 6 16.7599L6 17.7199C6 20.4352 6 21.7928 5.12132 22.6363C4.24264 23.4799 2.82843 23.4799 0 23.4799L-3.25 23.4799L-3.25 25.8409L2.23717 27.5968C2.63013 27.7225 2.8425 28.1303 2.71151 28.5075C2.58053 28.8847 2.15579 29.0886 1.76283 28.9629L-4 27.1188L-9.76283 28.9629C-10.1558 29.0886 -10.5805 28.8847 -10.7115 28.5075C-10.8425 28.1303 -10.6301 27.7225 -10.2372 27.5968L-4.75 25.8409L-4.75 23.4799L-8 23.4799C-10.8284 23.4799 -12.2426 23.4799 -13.1213 22.6363C-14 21.7928 -14 20.4352 -14 17.7199L-14 16.7599Z" fill="rgb(255,221,45)" fill-rule="nonzero" />
	</g>
	<g id="Bold / Money / Sale " clip-path="url(#clipPath_4)">
		<rect id="Bold / Money / Sale " width="24.000000" height="24.000000" x="8.000000" y="8.000000" />
		<path id="Subtract" d="M17.5924 11.2003C17.3489 11.4078 17.2271 11.5116 17.0971 11.5987C16.799 11.7985 16.4642 11.9372 16.1121 12.0067C15.9585 12.037 15.799 12.0498 15.4801 12.0752C14.6787 12.1392 14.278 12.1712 13.9437 12.2892C13.1705 12.5623 12.5623 13.1705 12.2892 13.9437C12.1712 14.278 12.1392 14.6787 12.0752 15.4801C12.0498 15.799 12.037 15.9585 12.0067 16.1121C11.9372 16.4642 11.7985 16.799 11.5987 17.0971C11.5116 17.2271 11.4078 17.3489 11.2003 17.5924C10.6788 18.2043 10.4181 18.5102 10.2652 18.8301C9.91159 19.57 9.91159 20.43 10.2652 21.1699C10.4181 21.4898 10.6788 21.7957 11.2003 22.4076C11.4078 22.6511 11.5116 22.7729 11.5987 22.9029C11.7985 23.201 11.9372 23.5358 12.0067 23.8879C12.037 24.0415 12.0498 24.201 12.0752 24.5199C12.1392 25.3213 12.1712 25.722 12.2892 26.0563C12.5623 26.8295 13.1705 27.4377 13.9437 27.7108C14.278 27.8288 14.6787 27.8608 15.4801 27.9248C15.799 27.9502 15.9585 27.963 16.1121 27.9933C16.4642 28.0628 16.799 28.2015 17.0971 28.4013C17.2271 28.4884 17.3489 28.5922 17.5924 28.7997C18.2043 29.3212 18.5102 29.5819 18.8301 29.7348C19.57 30.0884 20.43 30.0884 21.1699 29.7348C21.4898 29.5819 21.7957 29.3212 22.4076 28.7997C22.6511 28.5922 22.7729 28.4884 22.9029 28.4013C23.201 28.2015 23.5358 28.0628 23.8879 27.9933C24.0415 27.963 24.201 27.9502 24.5199 27.9248C25.3213 27.8608 25.722 27.8288 26.0563 27.7108C26.8295 27.4377 27.4377 26.8295 27.7108 26.0563C27.8288 25.722 27.8608 25.3213 27.9248 24.5199C27.9502 24.201 27.963 24.0415 27.9933 23.8879C28.0628 23.5358 28.2015 23.201 28.4013 22.9029C28.4884 22.7729 28.5922 22.6511 28.7997 22.4076C29.3212 21.7957 29.5819 21.4898 29.7348 21.1699C30.0884 20.43 30.0884 19.57 29.7348 18.8301C29.5819 18.5102 29.3212 18.2043 28.7997 17.5924C28.5922 17.3489 28.4884 17.2271 28.4013 17.0971C28.2015 16.799 28.0628 16.4642 27.9933 16.1121C27.963 15.9585 27.9502 15.799 27.9248 15.4801C27.8608 14.6787 27.8288 14.278 27.7108 13.9437C27.4377 13.1705 26.8295 12.5623 26.0563 12.2892C25.722 12.1712 25.3213 12.1392 24.5199 12.0752C24.201 12.0498 24.0415 12.037 23.8879 12.0067C23.5358 11.9372 23.201 11.7985 22.9029 11.5987C22.7729 11.5116 22.6511 11.4078 22.4076 11.2003C21.7957 10.6788 21.4898 10.4181 21.1699 10.2652C20.43 9.91159 19.57 9.91159 18.8301 10.2652C18.5102 10.4181 18.2043 10.6788 17.5924 11.2003ZM23.8309 16.1696C24.1487 16.4874 24.1487 17.0027 23.8309 17.3206L17.32 23.8314C17.0022 24.1493 16.4869 24.1493 16.1691 23.8314C15.8512 23.5136 15.8512 22.9983 16.1691 22.6805L22.6799 16.1696C22.9978 15.8518 23.5131 15.8518 23.8309 16.1696ZM23.798 22.7134C23.798 23.3127 23.3122 23.7985 22.7129 23.7985C22.1135 23.7985 21.6277 23.3127 21.6277 22.7134C21.6277 22.1141 22.1135 21.6282 22.7129 21.6282C23.3122 21.6282 23.798 22.1141 23.798 22.7134ZM17.2871 18.3728C17.8864 18.3728 18.3723 17.887 18.3723 17.2877C18.3723 16.6883 17.8864 16.2025 17.2871 16.2025C16.6878 16.2025 16.202 16.6883 16.202 17.2877C16.202 17.887 16.6878 18.3728 17.2871 18.3728Z" fill="rgb(255,141,40)" fill-rule="evenodd" />
	</g>
	<g id="Bold / Messages, Conversation / Chat Dots" opacity="0" clip-path="url(#clipPath_5)">
		<rect id="Bold / Messages, Conversation / Chat Dots" width="24.000000" height="24.000000" x="20.000000" y="8.000000" opacity="0" />
		<path id="Vector" d="M33.0867 29.3877L33.6288 28.4718C34.0492 27.7614 34.2595 27.4062 34.5972 27.2098C34.9349 27.0134 35.36 27.0061 36.2104 26.9915C37.4658 26.9698 38.2531 26.8929 38.9134 26.6194C40.1386 26.1119 41.1119 25.1386 41.6194 23.9134C42 22.9946 42 21.8297 42 19.5L42 18.5C42 15.2266 42 13.5899 41.2632 12.3875C40.8509 11.7147 40.2853 11.1491 39.6125 10.7368C38.4101 10 36.7734 10 33.5 10L30.5 10C27.2266 10 25.5899 10 24.3875 10.7368C23.7147 11.1491 23.1491 11.7147 22.7368 12.3875C22 13.5899 22 15.2266 22 18.5L22 19.5C22 21.8297 22 22.9946 22.3806 23.9134C22.8881 25.1386 23.8614 26.1119 25.0866 26.6194C25.7469 26.8929 26.5342 26.9698 27.7896 26.9915C28.6399 27.0061 29.0651 27.0134 29.4028 27.2098C29.7405 27.4063 29.9507 27.7614 30.3712 28.4718L30.9133 29.3877C31.3965 30.204 32.6035 30.204 33.0867 29.3877ZM36 20C36.5523 20 37 19.5523 37 19C37 18.4477 36.5523 18 36 18C35.4477 18 35 18.4477 35 19C35 19.5523 35.4477 20 36 20ZM33 19C33 19.5523 32.5523 20 32 20C31.4477 20 31 19.5523 31 19C31 18.4477 31.4477 18 32 18C32.5523 18 33 18.4477 33 19ZM28 20C28.5523 20 29 19.5523 29 19C29 18.4477 28.5523 18 28 18C27.4477 18 27 18.4477 27 19C27 19.5523 27.4477 20 28 20Z" fill="rgb(255,221,45)" fill-rule="evenodd" />
	</g>
	<g id="Bold / Money / Ruble" opacity="0" clip-path="url(#clipPath_6)" >
		<rect id="Bold / Money / Ruble" width="24.000000" height="24.000000" x="20.000000" y="8.000000" opacity="0" />
		<path id="Subtract" d="M32 30C37.5228 30 42 25.5228 42 20C42 14.4772 37.5228 10 32 10C26.4772 10 22 14.4772 22 20C22 25.5228 26.4772 30 32 30ZM29 21.25C28.5858 21.25 28.25 21.5858 28.25 22C28.25 22.4142 28.5858 22.75 29 22.75L29.25 22.75L29.25 25C29.25 25.4142 29.5858 25.75 30 25.75C30.4142 25.75 30.75 25.4142 30.75 25L30.75 22.75L32 22.75C32.4142 22.75 32.75 22.4142 32.75 22C32.75 21.5858 32.4142 21.25 32 21.25L30.75 21.25L30.75 20.75L33.5 20.75C35.2949 20.75 36.75 19.2949 36.75 17.5C36.75 15.7051 35.2949 14.25 33.5 14.25L31.1615 14.25C31.016 14.2498 30.8647 14.2496 30.7262 14.2715C29.9774 14.3901 29.3901 14.9774 29.2715 15.7262C29.2496 15.8647 29.2498 16.016 29.25 16.1615L29.25 19.25L29 19.25C28.5858 19.25 28.25 19.5858 28.25 20C28.25 20.4142 28.5858 20.75 29 20.75L29.25 20.75L29.25 21.25L29 21.25ZM33.5 19.25L30.75 19.25L30.75 16.2C30.75 16.103 30.7501 16.0453 30.7513 16.0018C30.752 15.9742 30.7531 15.9622 30.7533 15.9593C30.7708 15.8536 30.8536 15.7708 30.9593 15.7533C30.9622 15.7531 30.9742 15.752 31.0018 15.7513C31.0453 15.7501 31.103 15.75 31.2 15.75L33.5 15.75C34.4665 15.75 35.25 16.5335 35.25 17.5C35.25 18.4665 34.4665 19.25 33.5 19.25Z" fill="rgb(0,0,0)" fill-rule="evenodd" />
	</g>
</svg>
