<svg width="104" height="104" viewBox="0 0 104 104" fill="none" xmlns="http://www.w3.org/2000/svg">
<g clip-path="url(#clip0_19_6827)">
<rect x="0.5" width="104" height="104" rx="22" fill="#424141"/>
<path fill-rule="evenodd" clip-rule="evenodd" d="M65.3206 23.6665H65.514C68.018 23.6665 70.0375 23.6665 71.6631 23.821C73.3396 23.9804 74.8003 24.3181 76.1138 25.123C77.4437 25.9379 78.5618 27.0561 79.3768 28.386C80.1817 29.6995 80.5194 31.1602 80.6788 32.8367C80.8333 34.4623 80.8333 36.4818 80.8333 38.9858V39.1795C80.8333 40.8248 80.8334 42.1979 80.7273 43.3131C80.6165 44.479 80.3759 45.5655 79.7652 46.5621C79.1676 47.5374 78.3476 48.3574 77.3723 48.955C76.3757 49.5657 75.2892 49.8063 74.1233 49.9171C73.0081 50.0232 71.6349 50.0231 69.9896 50.0231L66.859 50.0231C64.4909 50.0232 62.5162 50.0232 60.9486 49.8125C59.294 49.59 57.8001 49.1007 56.5996 47.9002C55.3992 46.6997 54.9098 45.2058 54.6873 43.5512C54.4766 41.9835 54.4766 40.0089 54.4767 37.6408L54.4767 34.5104C54.4767 32.865 54.4766 31.4917 54.5827 30.3765C54.6935 29.2106 54.9341 28.1241 55.5448 27.1275C56.1424 26.1522 56.9624 25.3322 57.9377 24.7346C58.9343 24.1239 60.0208 23.8833 61.1867 23.7725C62.302 23.6664 63.6752 23.6665 65.3206 23.6665ZM67.655 40.1394C66.2966 40.1394 65.6173 40.1394 65.1378 39.7991C64.9685 39.679 64.8208 39.5313 64.7007 39.362C64.3604 38.8825 64.3604 38.2032 64.3604 36.8448C64.3604 35.4864 64.3604 34.8071 64.7007 34.3276C64.8208 34.1583 64.9685 34.0106 65.1378 33.8905C65.6173 33.5502 66.2966 33.5502 67.655 33.5502C69.0134 33.5502 69.6926 33.5502 70.1722 33.8905C70.3415 34.0106 70.4892 34.1583 70.6093 34.3276C70.9496 34.8071 70.9496 35.4864 70.9496 36.8448C70.9496 38.2032 70.9496 38.8825 70.6093 39.362C70.4892 39.5313 70.3415 39.679 70.1722 39.7991C69.6926 40.1394 69.0134 40.1394 67.655 40.1394Z" fill="#FFE665"/>
<path fill-rule="evenodd" clip-rule="evenodd" d="M47.0623 24.7346C46.0657 24.1239 44.9791 23.8833 43.8132 23.7725C42.6979 23.6664 41.3248 23.6665 39.6794 23.6665H39.486C36.982 23.6665 34.9624 23.6665 33.3368 23.821C31.6603 23.9804 30.1996 24.3181 28.8861 25.123C27.5562 25.9379 26.4381 27.0561 25.6231 28.386C24.8182 29.6995 24.4806 31.1602 24.3212 32.8367C24.1666 34.4623 24.1666 36.4817 24.1666 38.9857V39.1792C24.1666 40.8246 24.1666 42.1978 24.2726 43.3131C24.3835 44.479 24.624 45.5655 25.2347 46.5621C25.8323 47.5374 26.6523 48.3574 27.6276 48.955C28.6242 49.5657 29.7107 49.8063 30.8766 49.9171C31.9918 50.0232 33.3649 50.0231 35.0101 50.0231L38.1409 50.0231C40.5089 50.0232 42.4837 50.0232 44.0513 49.8125C45.706 49.59 47.1998 49.1007 48.4003 47.9002C49.6008 46.6997 50.0901 45.2058 50.3126 43.5512C50.5234 41.9836 50.5233 40.0089 50.5232 37.6408L50.5232 34.5104C50.5233 32.8652 50.5233 31.4917 50.4172 30.3765C50.3064 29.2106 50.0659 28.1241 49.4551 27.1275C48.8575 26.1522 48.0375 25.3322 47.0623 24.7346ZM34.8277 39.7991C35.3073 40.1394 35.9865 40.1394 37.3449 40.1394C38.7034 40.1394 39.3826 40.1394 39.8622 39.7991C40.0314 39.679 40.1791 39.5313 40.2992 39.362C40.6395 38.8825 40.6395 38.2032 40.6395 36.8448C40.6395 35.4864 40.6395 34.8071 40.2992 34.3276C40.1791 34.1583 40.0314 34.0106 39.8622 33.8905C39.3826 33.5502 38.7034 33.5502 37.3449 33.5502C35.9865 33.5502 35.3073 33.5502 34.8277 33.8905C34.6585 34.0106 34.5107 34.1583 34.3906 34.3276C34.0503 34.8071 34.0503 35.4864 34.0503 36.8448C34.0503 38.2032 34.0503 38.8825 34.3906 39.362C34.5107 39.5313 34.6585 39.679 34.8277 39.7991Z" fill="#FFE665"/>
<path fill-rule="evenodd" clip-rule="evenodd" d="M44.0513 54.1872C45.706 54.4097 47.1998 54.899 48.4003 56.0995C49.6008 57.3 50.0901 58.7938 50.3126 60.4485C50.5234 62.0161 50.5233 63.9909 50.5232 66.3589L50.5232 69.4893C50.5233 71.1347 50.5233 72.5079 50.4172 73.6232C50.3064 74.7891 50.0659 75.8756 49.4551 76.8722C48.8575 77.8475 48.0375 78.6674 47.0623 79.2651C46.0657 79.8758 44.9791 80.1163 43.8132 80.2272C42.698 80.3332 41.3246 80.3332 39.6793 80.3332H39.486C36.9819 80.3332 34.9625 80.3332 33.3368 80.1786C31.6603 80.0192 30.1996 79.6816 28.8861 78.8767C27.5562 78.0617 26.4381 76.9436 25.6231 75.6137C24.8182 74.3002 24.4806 72.8395 24.3212 71.163C24.1666 69.5373 24.1666 67.5179 24.1666 65.0138V64.8204C24.1666 63.175 24.1666 61.8018 24.2726 60.6866C24.3835 59.5207 24.624 58.4341 25.2347 57.4375C25.8323 56.4623 26.6523 55.6423 27.6276 55.0447C28.6242 54.4339 29.7107 54.1934 30.8766 54.0826C31.9919 53.9765 33.365 53.9765 35.0103 53.9766L38.1409 53.9766C40.509 53.9765 42.4837 53.9764 44.0513 54.1872ZM37.3449 70.4494C35.9865 70.4494 35.3073 70.4494 34.8277 70.1092C34.6585 69.9891 34.5107 69.8413 34.3906 69.6721C34.0503 69.1925 34.0503 68.5133 34.0503 67.1549C34.0503 65.7964 34.0503 65.1172 34.3906 64.6376C34.5107 64.4684 34.6585 64.3207 34.8277 64.2006C35.3073 63.8603 35.9865 63.8603 37.3449 63.8603C38.7033 63.8603 39.3826 63.8603 39.8622 64.2006C40.0314 64.3207 40.1791 64.4684 40.2992 64.6376C40.6395 65.1172 40.6395 65.7964 40.6395 67.1549C40.6395 68.5133 40.6395 69.1925 40.2992 69.6721C40.1791 69.8413 40.0314 69.9891 39.8622 70.1092C39.3826 70.4494 38.7034 70.4494 37.3449 70.4494Z" fill="#FFE665"/>
<path d="M54.4767 65.0771V65.1781H58.4302C58.4302 63.2861 58.4326 62.0159 58.5311 61.0476C58.6262 60.1123 58.7944 59.6801 58.9854 59.3943C59.2258 59.0345 59.5347 58.7257 59.8944 58.4853C60.1802 58.2943 60.6124 58.1261 61.5477 58.031C62.5161 57.9325 63.7863 57.9301 65.6782 57.9301H70.9496V53.9766H65.5772C63.8124 53.9765 62.3398 53.9765 61.1476 54.0978C59.8997 54.2247 58.7417 54.5007 57.698 55.1981C56.9065 55.7269 56.227 56.4064 55.6982 57.1978C55.0008 58.2415 54.7248 59.3996 54.5979 60.6475C54.4766 61.8397 54.4767 63.3123 54.4767 65.0771Z" fill="#FFE665"/>
<path d="M80.8333 70.516V70.4494H76.8798C76.8798 71.7046 76.8787 72.5469 76.8342 73.1991C76.7909 73.8336 76.7132 74.1425 76.629 74.3459C76.2946 75.1531 75.6533 75.7945 74.846 76.1289C74.6427 76.2131 74.3337 76.2908 73.6992 76.3341C73.047 76.3786 72.2047 76.3797 70.9496 76.3797H65.6782V80.3332H71.0161C72.1876 80.3332 73.1655 80.3332 73.9684 80.2784C74.8041 80.2214 75.5936 80.0985 76.3589 79.7814C78.1349 79.0458 79.5459 77.6348 80.2816 75.8588C80.5986 75.0934 80.7215 74.304 80.7785 73.4682C80.8333 72.6654 80.8333 71.6874 80.8333 70.516Z" fill="#FFE665"/>
<path d="M58.4302 78.3564C58.4302 79.4481 57.5452 80.3332 56.4534 80.3332C55.3617 80.3332 54.4767 79.4481 54.4767 78.3564V70.4494H58.4302V78.3564Z" fill="#FFE665"/>
<path d="M78.8565 53.9766C77.7648 53.9766 76.8798 54.8616 76.8798 55.9533V65.1781H80.8333V55.9533C80.8333 54.8616 79.9483 53.9766 78.8565 53.9766Z" fill="#FFE665"/>
<path d="M64.049 65.0822C63.8333 65.6029 63.8333 66.263 63.8333 67.5832C63.8333 68.9033 63.8333 69.5634 64.049 70.0841C64.3365 70.7784 64.8881 71.3299 65.5824 71.6175C66.103 71.8332 66.7631 71.8332 68.0833 71.8332C69.4035 71.8332 70.0635 71.8332 70.5842 71.6175C71.2785 71.3299 71.8301 70.7784 72.1176 70.0841C72.3333 69.5634 72.3333 68.9033 72.3333 67.5832C72.3333 66.263 72.3333 65.6029 72.1176 65.0822C71.8301 64.388 71.2785 63.8364 70.5842 63.5488C70.0635 63.3332 69.4035 63.3332 68.0833 63.3332C66.7631 63.3332 66.103 63.3332 65.5824 63.5488C64.8881 63.8364 64.3365 64.388 64.049 65.0822Z" fill="#FFE665"/>
</g>
<defs>
<clipPath id="clip0_19_6827">
<rect width="104" height="104" rx="22" fill="white"/>
</clipPath>
</defs>
</svg>
