<svg viewBox="0 0 104 104" xmlns="http://www.w3.org/2000/svg" xmlns:xlink="http://www.w3.org/1999/xlink" width="104.000000" height="104.000000" fill="none" clip-path="url(#clipPath_6)" >
	<defs>
		<clipPath id="clipPath_6">
			<rect width="104.000000" height="104.000000" x="0.000000" y="0.000000" rx="22.000000" fill="rgb(255,255,255)" />
		</clipPath>
		<clipPath id="clipPath_7">
			<rect width="68.000000" height="68.000000" x="18.500000" y="18.000000" fill="rgb(255,255,255)" />
		</clipPath>
	</defs>
	<rect id="Frame 8784" width="104.000000" height="104.000000" x="0.000000" y="0.000000" rx="22.000000" fill="rgb(255,255,255)" fill-opacity="0.119999997" />
	<g id="Bold / Security / Shield Check" clip-path="url(#clipPath_7)" >
		<rect id="Bold / Security / Shield Check" width="68.000000" height="68.000000" x="18.500000" y="18.000000" />
		<path id="Vector" d="M28.0696 32.4002C27 33.9242 27 38.4541 27 47.5139L27 51.9756C27 67.9501 39.0104 75.7023 46.5459 78.994C48.59 79.8869 49.6121 80.3334 52.5 80.3334C55.3879 80.3334 56.41 79.887 58.4541 78.994C65.9896 75.7023 78 67.9501 78 51.9756L78 47.5139C78 38.4541 78 33.9242 76.9304 32.4002C75.8607 30.8763 71.6014 29.4183 63.0828 26.5023L61.4598 25.9468C57.0192 24.4268 54.7989 23.6667 52.5 23.6667C50.2011 23.6667 47.9808 24.4268 43.5402 25.9468L41.9172 26.5023C33.3986 29.4183 29.1393 30.8763 28.0696 32.4002ZM61.1684 47.7487C61.9501 46.8733 61.8741 45.5299 60.9986 44.7483C60.1232 43.9667 58.7799 44.0427 57.9982 44.9181L49.4643 54.4761L47.0018 51.7181C46.2201 50.8427 44.8768 50.7667 44.0014 51.5483C43.1259 52.3299 43.0499 53.6733 43.8316 54.5487L47.8792 59.082C48.2823 59.5336 48.8589 59.7917 49.4643 59.7917C50.0696 59.7917 50.6462 59.5336 51.0494 59.082L61.1684 47.7487Z" fill="rgb(255,230,101)" fill-rule="evenodd" />
	</g>
</svg>
