<svg viewBox="0 0 104 104" xmlns="http://www.w3.org/2000/svg" xmlns:xlink="http://www.w3.org/1999/xlink" width="104.000000" height="104.000000" fill="none" clip-path="url(#clipPath_4)" >
	<defs>
		<clipPath id="clipPath_4">
			<rect width="104.000000" height="104.000000" x="0.000000" y="0.000000" rx="22.000000" fill="rgb(255,255,255)" />
		</clipPath>
		<clipPath id="clipPath_5">
			<rect width="68.000000" height="68.000000" x="18.500000" y="18.000000" rx="5.000000" fill="rgb(255,255,255)" />
		</clipPath>
	</defs>
	<rect id="Frame 8784" width="104.000000" height="104.000000" x="0.000000" y="0.000000" rx="22.000000" fill="rgb(255,255,255)" fill-opacity="0.119999997" />
	<g id="Bold / Settings, Fine Tuning / Settings" clip-path="url(#clipPath_5)" >
		<rect id="Bold / Settings, Fine Tuning / Settings" width="68.000000" height="68.000000" x="18.500000" y="18.000000" rx="5.000000" />
		<path id="Vector" d="M58.9566 24.0981C57.9073 23.6667 56.5771 23.6667 53.9167 23.6667C51.2562 23.6667 49.926 23.6667 48.8767 24.0981C47.4776 24.6732 46.3661 25.7764 45.7866 27.1649C45.522 27.7987 45.4185 28.5358 45.378 29.6111C45.3185 31.1912 44.5019 32.6538 43.1221 33.4444C41.7423 34.235 40.0578 34.2054 38.6492 33.4666C37.6907 32.9638 36.9957 32.6842 36.3103 32.5946C34.8089 32.3985 33.2905 32.8022 32.0891 33.7171C31.1881 34.4033 30.5229 35.5466 29.1927 37.8332C27.8625 40.1198 27.1974 41.2631 27.0492 42.3806C26.8515 43.8707 27.2583 45.3776 28.1802 46.5699C28.601 47.1142 29.1924 47.5717 30.1102 48.144C31.4594 48.9854 32.3276 50.4187 32.3275 52.0001C32.3274 53.5814 31.4593 55.0145 30.1102 55.8558C29.1922 56.4282 28.6008 56.8858 28.1799 57.43C27.2581 58.6224 26.8512 60.1293 27.0489 61.6193C27.1971 62.7369 27.8622 63.8801 29.1924 66.1667C30.5227 68.4533 31.1878 69.5966 32.0888 70.2828C33.2902 71.1977 34.8086 71.6015 36.31 71.4053C36.9954 71.3158 37.6903 71.0362 38.6488 70.5335C40.0575 69.7946 41.7421 69.765 43.122 70.5557C44.5019 71.3463 45.3184 72.809 45.378 74.3893C45.4185 75.4644 45.522 76.2015 45.7866 76.8353C46.3661 78.2238 47.4776 79.3269 48.8767 79.9021C49.926 80.3334 51.2562 80.3334 53.9167 80.3334C56.5771 80.3334 57.9073 80.3334 58.9566 79.9021C60.3557 79.3269 61.4672 78.2238 62.0468 76.8353C62.3113 76.2014 62.4148 75.4643 62.4553 74.389C62.5149 72.8089 63.3313 71.3464 64.711 70.5557C66.0909 69.7649 67.7756 69.7944 69.1844 70.5333C70.1428 71.0361 70.8377 71.3156 71.523 71.4051C73.0244 71.6013 74.5428 71.1975 75.7442 70.2826C76.6453 69.5965 77.3104 68.4532 78.6406 66.1665C79.9708 63.88 80.6359 62.7367 80.7842 61.6191C80.9818 60.1291 80.575 58.6222 79.6531 57.4298C79.2323 56.8856 78.6409 56.4281 77.723 55.8557C76.3738 55.0144 75.5058 53.5812 75.5058 51.9998C75.5059 50.4187 76.374 48.9856 77.723 48.1445C78.6411 47.572 79.2326 47.1144 79.6534 46.5701C80.5753 45.3778 80.9821 43.8709 80.7845 42.3808C80.6362 41.2633 79.9711 40.12 78.6409 37.8334C77.3107 35.5468 76.6456 34.4035 75.7445 33.7173C74.5431 32.8024 73.0247 32.3987 71.5233 32.5948C70.838 32.6844 70.143 32.9639 69.1846 33.4667C67.7759 34.2056 66.0912 34.2351 64.7113 33.4445C63.3314 32.6538 62.5149 31.1911 62.4553 29.6109C62.4148 28.5358 62.3113 27.7987 62.0468 27.1649C61.4672 25.7764 60.3557 24.6732 58.9566 24.0981ZM53.9167 60.5001C58.6468 60.5001 62.4814 56.6945 62.4814 52.0001C62.4814 47.3057 58.6468 43.5001 53.9167 43.5001C49.1865 43.5001 45.3519 47.3057 45.3519 52.0001C45.3519 56.6945 49.1865 60.5001 53.9167 60.5001Z" fill="rgb(255,230,101)" fill-rule="evenodd" />
	</g>
</svg>
