<svg width="20" height="20" viewBox="0 0 20 20" fill="none" xmlns="http://www.w3.org/2000/svg">
<g clip-path="url(#clip0_68_1489)">
<path d="M1.66666 9.99999C1.66666 6.07162 1.66666 4.10743 2.88705 2.88704C4.10744 1.66666 6.07163 1.66666 10 1.66666C13.9284 1.66666 15.8926 1.66666 17.1129 2.88704C18.3333 4.10743 18.3333 6.07162 18.3333 9.99999C18.3333 13.9284 18.3333 15.8925 17.1129 17.1129C15.8926 18.3333 13.9284 18.3333 10 18.3333C6.07163 18.3333 4.10744 18.3333 2.88705 17.1129C1.66666 15.8925 1.66666 13.9284 1.66666 9.99999Z" stroke="white" stroke-width="1.5"/>
<ellipse cx="6.66667" cy="8.33332" rx="1.66667" ry="1.66667" stroke="white" stroke-width="1.5"/>
<circle cx="1.66667" cy="1.66667" r="1.66667" transform="matrix(1 0 0 -1 11.6667 13.3333)" stroke="white" stroke-width="1.5"/>
<path d="M6.66666 11.6667V15.8333" stroke="white" stroke-width="1.5" stroke-linecap="round"/>
<path d="M13.3333 8.33334V4.16668" stroke="white" stroke-width="1.5" stroke-linecap="round"/>
<path d="M6.66666 4.16666V4.99999" stroke="white" stroke-width="1.5" stroke-linecap="round"/>
<path d="M13.3333 15.8333V15" stroke="white" stroke-width="1.5" stroke-linecap="round"/>
</g>
<defs>
<clipPath id="clip0_68_1489">
<rect width="20" height="20" rx="5" fill="white"/>
</clipPath>
</defs>
</svg>
