<svg width="104" height="104" viewBox="0 0 104 104" fill="none" xmlns="http://www.w3.org/2000/svg">
<rect width="104" height="104" rx="22" fill="white" fill-opacity="0.12"/>
<path fill-rule="evenodd" clip-rule="evenodd" d="M27.2104 32.6119C26.125 34.1583 26.125 38.7548 26.125 47.9479V52.4752C26.125 68.6846 38.312 76.5508 45.9584 79.8909C48.0325 80.797 49.0696 81.25 52 81.25C54.9304 81.25 55.9675 80.797 58.0416 79.8909C65.688 76.5508 77.875 68.6846 77.875 52.4752V47.9479C77.875 38.7548 77.875 34.1583 76.7896 32.6119C75.7043 31.0656 71.3823 29.5861 62.7384 26.6273L61.0915 26.0636C56.5857 24.5212 54.3327 23.75 52 23.75C49.6673 23.75 47.4143 24.5212 42.9085 26.0636L41.2616 26.6273C32.6177 29.5861 28.2957 31.0656 27.2104 32.6119ZM46.3372 43.7877C45.4951 42.9457 44.1299 42.9457 43.2878 43.7877C42.4457 44.6298 42.4457 45.9951 43.2878 46.8371L48.9506 52.5L43.2879 58.1627C42.4458 59.0048 42.4458 60.3701 43.2879 61.2121C44.1299 62.0542 45.4952 62.0542 46.3373 61.2121L52 55.5494L57.6627 61.2121C58.5048 62.0541 59.8701 62.0541 60.7121 61.2121C61.5542 60.37 61.5542 59.0048 60.7121 58.1627L55.0494 52.5L60.7122 46.8372C61.5543 45.9951 61.5543 44.6299 60.7122 43.7878C59.8701 42.9457 58.5049 42.9457 57.6628 43.7878L52 49.4506L46.3372 43.7877Z" fill="#FFE665"/>
</svg>
