<svg viewBox="0 0 104 104" xmlns="http://www.w3.org/2000/svg" xmlns:xlink="http://www.w3.org/1999/xlink" width="104.000000" height="104.000000" fill="none" clip-path="url(#clipPath_0)" customFrame="url(#clipPath_0)">
	<defs>
		<clipPath id="clipPath_0">
			<rect width="104.000000" height="104.000000" x="0.000000" y="0.000000" rx="22.000000" fill="rgb(255,255,255)" />
		</clipPath>
		<clipPath id="clipPath_1">
			<rect width="68.000000" height="68.000000" x="18.500000" y="18.000000" fill="rgb(255,255,255)" />
		</clipPath>
	</defs>
	<rect id="Frame 8784" width="104.000000" height="104.000000" x="0.000000" y="0.000000" rx="22.000000" fill="rgb(255,255,255)" fill-opacity="0.119999997" />
	<g id="Bold / Security / Shield Plus" clip-path="url(#clipPath_1)" customFrame="url(#clipPath_1)">
		<rect id="Bold / Security / Shield Plus" width="68.000000" height="68.000000" x="18.500000" y="18.000000" />
		<path id="Vector" d="M28.0698 32.4002C27.0002 33.9242 27.0002 38.4541 27.0002 47.5139L27.0002 51.9756C27.0002 67.9501 39.0105 75.7023 46.5461 78.994C48.5902 79.887 49.6123 80.3334 52.5002 80.3334C55.3881 80.3334 56.4101 79.887 58.4542 78.994C65.9898 75.7023 78.0002 67.9501 78.0002 51.9756L78.0002 47.5139C78.0002 38.4541 78.0002 33.9242 76.9305 32.4002C75.8609 30.8763 71.6016 29.4183 63.0829 26.5023L61.4599 25.9468C57.0194 24.4268 54.7991 23.6667 52.5002 23.6667C50.2012 23.6667 47.9809 24.4268 43.5404 25.9468L41.9174 26.5023C33.3987 29.4183 29.1394 30.8763 28.0698 32.4002ZM54.6252 43.5001C54.6252 42.3265 53.6738 41.3751 52.5002 41.3751C51.3265 41.3751 50.3752 42.3265 50.3752 43.5001L50.3752 49.8752L44.0002 49.8752C42.8265 49.8752 41.8752 50.8265 41.8752 52.0002C41.8752 53.1738 42.8265 54.1252 44.0002 54.1252L50.3752 54.1252L50.3752 60.5001C50.3752 61.6737 51.3265 62.6251 52.5002 62.6251C53.6738 62.6251 54.6252 61.6737 54.6252 60.5001L54.6252 54.1252L61.0002 54.1252C62.1738 54.1252 63.1252 53.1738 63.1252 52.0002C63.1252 50.8265 62.1738 49.8752 61.0002 49.8752L54.6252 49.8752L54.6252 43.5001Z" fill="rgb(255,230,101)" fill-rule="evenodd" />
	</g>
</svg>
