<svg width="34" height="34" viewBox="0 0 34 34" fill="none" xmlns="http://www.w3.org/2000/svg">
<g clip-path="url(#clip0_135_2987)">
<rect width="34" height="34" rx="12" fill="#424141"/>
<path d="M17.1797 22.7734C15.0312 22.7734 13.7109 21.8438 13.1797 20.7344C13.0547 20.4766 13 20.2266 13 19.9922C13 19.3828 13.3906 19 14.0391 19C14.5078 19 14.8047 19.1875 15.0391 19.6172C15.4375 20.4062 16.0469 20.875 17.2188 20.875C18.375 20.875 19.1719 20.2031 19.1719 19.2656C19.1797 18.1719 18.375 17.5625 17.0078 17.5625H16.5156C15.9453 17.5625 15.6172 17.2266 15.6172 16.7188C15.6172 16.2266 15.9453 15.8828 16.5156 15.8828H16.9766C18.1562 15.8828 18.9219 15.2422 18.9219 14.3203C18.9219 13.4141 18.3125 12.8125 17.1719 12.8125C16.2188 12.8125 15.6406 13.2109 15.2734 14.0078C15.0156 14.5391 14.7422 14.7344 14.2109 14.7344C13.5547 14.7344 13.2188 14.3516 13.2188 13.7812C13.2188 13.5156 13.2734 13.2891 13.3906 13.0234C13.8906 11.9219 15.1719 11 17.1641 11C19.5469 11 21.1562 12.1797 21.1562 13.9844C21.1562 15.4141 20.1328 16.3516 18.8047 16.625V16.6719C20.4844 16.8281 21.5703 17.8125 21.5703 19.3672C21.5703 21.4141 19.7969 22.7734 17.1797 22.7734Z" fill="white"/>
</g>
<defs>
<clipPath id="clip0_135_2987">
<rect width="34" height="34" rx="12" fill="white"/>
</clipPath>
</defs>
</svg>
