<svg viewBox="0 0 12 12" xmlns="http://www.w3.org/2000/svg" xmlns:xlink="http://www.w3.org/1999/xlink" width="12.000000" height="12.000000" fill="none" >
	<g id="vuesax/bold/tick-circle">
		<g id="tick-circle">
			<path id="Vector" d="M6 1C3.245 1 1 3.245 1 6C1 8.755 3.245 11 6 11C8.755 11 11 8.755 11 6C11 3.245 8.755 1 6 1ZM8.39 4.85L5.555 7.685C5.485 7.755 5.39 7.795 5.29 7.795C5.19 7.795 5.095 7.755 5.025 7.685L3.61 6.27C3.465 6.125 3.465 5.885 3.61 5.74C3.755 5.595 3.995 5.595 4.14 5.74L5.29 6.89L7.86 4.32C8.005 4.175 8.245 4.175 8.39 4.32C8.535 4.465 8.535 4.7 8.39 4.85Z" fill="rgb(18,183,106)" fill-rule="nonzero" />
			<path id="Vector" opacity="0" transform="matrix(-1,-1.22465e-16,1.22465e-16,-1,12,12)" />
		</g>
	</g>
</svg>
