<svg width="104" height="104" viewBox="0 0 104 104" fill="none" xmlns="http://www.w3.org/2000/svg">
<g clip-path="url(#clip0_19_6819)">
<rect x="0.5" width="104" height="104" rx="22" fill="#424141"/>
<path d="M24.1667 42.8198C24.1667 35.1266 24.1667 31.28 26.6563 28.89C29.1459 26.5 33.1528 26.5 41.1667 26.5H63.8334C71.8472 26.5 75.8542 26.5 78.3438 28.89C80.8334 31.28 80.8334 35.1266 80.8334 42.8198V45.5398C80.8334 53.233 80.8334 57.0797 78.3438 59.4696C75.8542 61.8596 71.8472 61.8596 63.8334 61.8596H54.625V68.5492L70.172 73.5242C71.2854 73.8805 71.8871 75.0357 71.516 76.1046C71.1448 77.1734 69.9414 77.751 68.828 77.3948L52.5 72.1699L36.172 77.3948C35.0586 77.751 33.8552 77.1734 33.4841 76.1046C33.1129 75.0357 33.7147 73.8805 34.828 73.5242L50.375 68.5492V61.8596H41.1667C33.1528 61.8596 29.1459 61.8596 26.6563 59.4696C24.1667 57.0797 24.1667 53.233 24.1667 45.5398V42.8198Z" fill="#FFE665"/>
</g>
<defs>
<clipPath id="clip0_19_6819">
<rect width="104" height="104" rx="22" fill="white"/>
</clipPath>
</defs>
</svg>
