<svg width="34" height="34" viewBox="0 0 34 34" fill="none" xmlns="http://www.w3.org/2000/svg">
<g clip-path="url(#clip0_135_568)">
<rect width="34" height="34" rx="12" fill="#424141"/>
<path d="M14.1094 22.5234C13.3672 22.5234 13 22.1094 13 21.5156C13 21.0703 13.1719 20.7734 13.6484 20.3359L17.0078 17.125C18.3984 15.7891 18.7578 15.2422 18.7578 14.4297C18.7578 13.5 18.0391 12.8359 17.0312 12.8359C16.125 12.8359 15.5 13.2891 15.0938 14.1953C14.8281 14.6641 14.5547 14.8828 14.0469 14.8828C13.4141 14.8828 13.0391 14.5078 13.0391 13.9219C13.0391 13.7422 13.0703 13.5781 13.125 13.4141C13.5078 12.1641 14.9219 11 17.0547 11C19.4453 11 21.0547 12.3438 21.0547 14.2812C21.0547 15.6562 20.3828 16.5156 18.5391 18.2578L16.1016 20.6016V20.6484H20.3516C20.9609 20.6484 21.3281 21.0156 21.3281 21.5859C21.3281 22.1406 20.9609 22.5234 20.3516 22.5234H14.1094Z" fill="white"/>
</g>
<defs>
<clipPath id="clip0_135_568">
<rect width="34" height="34" rx="12" fill="white"/>
</clipPath>
</defs>
</svg>
