<svg width="28" height="28" viewBox="0 0 28 28" fill="none" xmlns="http://www.w3.org/2000/svg">
<path d="M13.93 2.5783L11.1183 9.1233H8.30667C7.84 9.1233 7.385 9.1583 6.94167 9.25163L8.10833 6.45163L8.155 6.34663L8.225 6.15997C8.26 6.0783 8.28333 6.0083 8.31833 5.94997C9.67167 2.81163 11.1883 1.83163 13.93 2.5783Z" fill="var(--menu-icon-color)"/>
<path d="M21.8517 9.43827L21.8283 9.42661C21.1283 9.22827 20.4167 9.12327 19.6933 9.12327H12.39L15.015 3.02161L15.05 2.93994C15.2133 2.99827 15.3883 3.07994 15.5633 3.13827L18.1417 4.22327C19.5767 4.81827 20.58 5.43661 21.1983 6.18327C21.3033 6.32327 21.3967 6.45161 21.49 6.60327C21.595 6.76661 21.6767 6.92994 21.7233 7.10494C21.77 7.20994 21.805 7.30327 21.8283 7.40827C22.0033 8.00327 22.015 8.67994 21.8517 9.43827Z" fill="var(--menu-icon-color)"/>
<path d="M14.6067 20.6034H14.8983C15.2483 20.6034 15.54 20.2884 15.54 19.9034C15.54 19.4134 15.4 19.3434 15.0967 19.2268L14.6067 19.0518V20.6034Z" fill="var(--menu-icon-color)"/>
<path d="M21.3383 11.1069C20.8133 10.9552 20.265 10.8735 19.6933 10.8735H8.30666C7.51333 10.8735 6.76666 11.0252 6.06666 11.3285C4.03666 12.2035 2.61333 14.2219 2.61333 16.5669V18.8419C2.61333 19.1219 2.63666 19.3902 2.67166 19.6702C2.92833 23.3802 4.91166 25.3635 8.62166 25.6085C8.88999 25.6435 9.15833 25.6669 9.45 25.6669H18.55C22.8667 25.6669 25.1417 23.6135 25.3633 19.5302C25.375 19.3085 25.3867 19.0752 25.3867 18.8419V16.5669C25.3867 13.9885 23.6717 11.8185 21.3383 11.1069ZM15.4933 18.0835C16.03 18.2702 16.7533 18.6669 16.7533 19.9035C16.7533 20.9652 15.925 21.8169 14.8983 21.8169H14.6067V22.0735C14.6067 22.4119 14.3383 22.6802 14 22.6802C13.6617 22.6802 13.3933 22.4119 13.3933 22.0735V21.8169H13.2883C12.1683 21.8169 11.2467 20.8719 11.2467 19.7052C11.2467 19.3669 11.515 19.0985 11.8533 19.0985C12.1917 19.0985 12.46 19.3669 12.46 19.7052C12.46 20.1952 12.8333 20.6035 13.2883 20.6035H13.3933V18.6319L12.5067 18.3169C11.97 18.1302 11.2467 17.7335 11.2467 16.4969C11.2467 15.4352 12.075 14.5835 13.1017 14.5835H13.3933V14.3269C13.3933 13.9885 13.6617 13.7202 14 13.7202C14.3383 13.7202 14.6067 13.9885 14.6067 14.3269V14.5835H14.7117C15.8317 14.5835 16.7533 15.5285 16.7533 16.6952C16.7533 17.0335 16.485 17.3019 16.1467 17.3019C15.8083 17.3019 15.54 17.0335 15.54 16.6952C15.54 16.2052 15.1667 15.7969 14.7117 15.7969H14.6067V17.7685L15.4933 18.0835Z" fill="var(--menu-icon-color)"/>
<path d="M12.46 16.4969C12.46 16.9869 12.6 17.0569 12.9033 17.1735L13.3933 17.3485V15.7969H13.1017C12.74 15.7969 12.46 16.1119 12.46 16.4969Z" fill="var(--menu-icon-color)"/>
</svg>
