<svg width="104" height="104" viewBox="0 0 104 104" fill="none" xmlns="http://www.w3.org/2000/svg">
<g clip-path="url(#clip0_1_1882)">
<rect x="0.5" width="104" height="104" rx="22" fill="#424141"/>
<path d="M66.9121 60.3438C61.3105 60.3438 57.209 57.7656 55.8027 54.7422C55.4746 54.0859 55.334 53.5 55.334 52.8906C55.334 51.3203 56.3887 50.125 58.2637 50.125C59.6934 50.125 60.4902 50.7578 61.5449 51.9297C63.1152 53.8281 64.6152 54.7422 67.1699 54.7422C72.1621 54.7422 74.459 49.9844 74.4824 42.9297V42.5547H74.3418C73.123 45.8125 69.7949 48.0391 65.3418 48.0391C59.084 48.0391 54.1152 43.5859 54.1152 37C54.1152 29.9922 59.5996 25 67.1465 25C72.5371 25 76.8027 27.5078 79.2637 32.4766C80.5527 35.0781 81.2559 38.4297 81.2559 42.3906C81.2559 53.6406 75.8887 60.3438 66.9121 60.3438ZM67.1699 42.7891C70.7559 42.7891 73.4512 40.2812 73.4512 36.8359C73.4512 33.3438 70.7324 30.6484 67.2402 30.6484C63.748 30.6484 61.0059 33.2969 61.0059 36.7188C61.0059 40.2578 63.6309 42.7891 67.1699 42.7891Z" fill="#FFE665"/>
<path d="M43.0527 60.0859C41.1074 60.0859 39.7012 58.8906 39.7012 56.6406V53.3828H27.0918C24.5371 53.3828 22.8262 51.7891 22.8262 49.4219C22.8262 47.9688 23.248 46.6562 24.3027 44.8047C26.623 40.6328 29.998 35.4766 33.6777 30.0156C36.0215 26.4297 37.7324 25.2578 40.5918 25.2578C44.1777 25.2578 46.4277 27.2031 46.4277 30.3672V47.7344H48.3496C50.2246 47.7344 51.2559 48.9062 51.2559 50.5703C51.2559 52.2344 50.2012 53.3828 48.3496 53.3828H46.4277V56.6406C46.4277 58.8906 44.998 60.0859 43.0527 60.0859ZM39.8418 47.9219V30.9062H39.7012C34.873 37.8672 31.7559 42.625 29.0137 47.7344V47.9219H39.8418Z" fill="#FFE665"/>
<path d="M77.0857 69.4511C75.5139 69.4511 74.3964 68.5879 74.1601 67.4068C74.1329 67.2705 74.1147 67.1433 74.1147 67.0161C74.1147 66.6072 74.36 66.3438 74.7325 66.3438C75.0869 66.3438 75.2777 66.5255 75.3867 66.9616C75.6047 67.8156 76.2044 68.3335 77.0766 68.3335C77.9761 68.3335 78.5849 67.7975 78.7847 66.9616C78.8938 66.5255 79.0755 66.3438 79.4298 66.3438C79.8114 66.3438 80.0476 66.6163 80.0476 67.0161C80.0476 67.1251 80.0295 67.2523 80.0113 67.3613C79.7932 68.5697 78.6575 69.4511 77.0857 69.4511ZM73.9693 80.4992C73.2697 80.4992 72.8972 80.0813 72.8972 79.409V71.6044C72.8972 70.9774 73.297 70.5958 73.8603 70.5958C74.4236 70.5958 74.8325 70.9774 74.8325 71.6044V77.4646H74.9052L78.9483 71.3409C79.3026 70.7957 79.6388 70.5958 80.1748 70.5958C80.829 70.5958 81.256 71.0138 81.256 71.6861V79.4907C81.256 80.1267 80.8472 80.4992 80.2839 80.4992C79.7206 80.4992 79.3208 80.1267 79.3208 79.4907V73.6123H79.2481L75.1959 79.7633C74.8416 80.3084 74.5054 80.4992 73.9693 80.4992Z" fill="#FFE665"/>
<path d="M67.0551 80.5084C64.1749 80.5084 62.485 78.6822 62.485 75.5931C62.485 72.5585 64.2113 70.5959 66.9188 70.5959C69.4628 70.5959 71.2163 72.4313 71.2163 75.0388C71.2163 75.6748 70.8529 76.0383 70.2442 76.0383H64.4657V76.0837C64.4657 77.8281 65.4469 78.9184 67.0097 78.9184C68.0818 78.9184 68.7541 78.5459 69.481 77.5556C69.6899 77.3103 69.8898 77.2103 70.1715 77.2103C70.6439 77.2103 70.9892 77.5192 70.9892 78.0099C70.9892 78.1643 70.9347 78.346 70.8529 78.5368C70.226 79.7907 68.8359 80.5084 67.0551 80.5084ZM64.4747 74.6663H69.2538C69.2084 73.1672 68.2726 72.1769 66.9097 72.1769C65.5559 72.1769 64.5747 73.1763 64.4747 74.6663Z" fill="#FFE665"/>
<path d="M53.0087 80.3812C52.2364 80.3812 51.7367 79.9905 51.7367 79.4272C51.7367 78.9729 52.0093 78.6822 52.4635 78.6822H52.5453C53.3085 78.664 53.6992 77.9281 53.8264 76.1018L54.1171 71.8316C54.1535 71.1502 54.4987 70.7686 55.1347 70.7686H59.7775C60.4044 70.7686 60.7951 71.1683 60.7951 71.8316V79.5544C60.7951 80.1268 60.4135 80.4993 59.8229 80.4993C59.2415 80.4993 58.8417 80.1268 58.8417 79.5544V72.3222H55.8979L55.6254 76.1564C55.4255 79.0456 54.5987 80.3812 53.0087 80.3812Z" fill="#FFE665"/>
<path d="M46.8486 80.5084C43.8503 80.5084 42.233 78.5368 42.233 74.7754C42.233 69.4239 43.823 67.316 47.421 67.1888C48.5839 67.1525 49.1472 67.0525 49.5016 66.9889C49.7378 66.9435 49.8741 66.9163 50.0467 66.9163C50.5101 66.9163 50.8826 67.1434 50.8826 67.6613C50.8826 68.1247 50.5919 68.4336 49.9649 68.6153C49.5833 68.7425 49.0291 68.8061 47.5482 68.8515C45.1223 68.9242 44.2137 69.9327 43.8321 72.7856H43.9048C44.4954 71.6772 45.6402 71.0412 47.1666 71.0412C49.7469 71.0412 51.4005 72.8401 51.4005 75.6567C51.4005 78.664 49.6651 80.5084 46.8486 80.5084ZM46.8304 78.8639C48.4567 78.8639 49.3925 77.71 49.3925 75.6839C49.3925 73.7487 48.4476 72.6402 46.8304 72.6402C45.195 72.6402 44.2501 73.7487 44.2501 75.6839C44.2501 77.71 45.1859 78.8639 46.8304 78.8639Z" fill="#FFE665"/>
<path d="M34.4556 83.8883C33.5471 83.8883 33.0474 83.5521 33.0474 82.9434C33.0474 82.5254 33.3381 82.2529 33.8105 82.2529C34.0195 82.2529 34.0922 82.262 34.3193 82.262C34.8645 82.262 35.4187 81.9621 35.7731 80.9809L35.9548 80.4267L32.7566 72.0587C32.6839 71.8589 32.6476 71.659 32.6476 71.5045C32.6476 70.9685 33.0746 70.5959 33.647 70.5959C34.1376 70.5959 34.4193 70.8049 34.5919 71.3501L37.0269 78.5459H37.0541L39.4982 71.3501C39.6617 70.814 39.9343 70.5959 40.434 70.5959C40.9973 70.5959 41.388 70.9685 41.388 71.4954C41.388 71.6499 41.3517 71.8498 41.2881 72.0406L37.9718 80.8083C37.1268 83.1069 36.2273 83.8883 34.4556 83.8883Z" fill="#FFE665"/>
<path d="M23.8073 83.7157C23.2258 83.7157 22.826 83.3159 22.826 82.6708V71.6045C22.826 70.9775 23.2167 70.5959 23.771 70.5959C24.3252 70.5959 24.725 70.9775 24.725 71.6045V72.4131H24.7613C25.3246 71.3137 26.424 70.6141 27.805 70.6141C30.2309 70.6141 31.83 72.5221 31.83 75.5476C31.83 78.5732 30.24 80.4903 27.8413 80.4903C26.4694 80.4903 25.3791 79.8179 24.834 78.7549H24.7886V82.6708C24.7886 83.3159 24.3797 83.7157 23.8073 83.7157ZM27.2871 78.8276C28.8408 78.8276 29.8129 77.5556 29.8129 75.5476C29.8129 73.5488 28.8408 72.2677 27.2871 72.2677C25.788 72.2677 24.7795 73.5761 24.7795 75.5476C24.7795 77.5374 25.7789 78.8276 27.2871 78.8276Z" fill="#FFE665"/>
</g>
<defs>
<clipPath id="clip0_1_1882">
<rect width="104" height="104" rx="22" fill="white"/>
</clipPath>
</defs>
</svg>
